<?xml version="1.0" encoding="UTF-8"?>
<!-- Generated by jsxcad -->
<!DOCTYPE svg PUBLIC "-//W3C//DTD SVG 1.1 Tiny//EN" "http://www.w3.org/Graphics/SVG/1.1/DTD/svg11-tiny.dtd">
<svg baseProfile="tiny" height="431.6345177664977mm" width="360.0000000000003mm" viewBox="-8.526512829121203e-14 -20.000000000000117 360.0000000000003 431.6345177664977" version="1.1" stroke="black" stroke-width=".1" fill="none" xmlns="http://www.w3.org/2000/svg">
<path fill="#fffcf7" stroke="#fffcf7" d="M204 -38.01421319796956 L204 -30.948223350253823 L228 -30.948223350253823 L228 -38.01421319796956 z"/>
<path fill="#fffcf7" stroke="#fffcf7" d="M204 -71.97969543147208 L228 -71.97969543147208 L228 -64.91370558375634 L204 -64.91370558375634 z"/>
<path fill="#fffcf7" stroke="#fffcf7" d="M228 -43.6751269035533 L228 -38.01421319796954 L228 -30.948223350253805 L228 -64.91370558375634 L228 -71.97969543147208 z"/>
<path fill="#fffcf7" stroke="#fffcf7" d="M204 -64.91370558375634 L204 -30.948223350253805 L204 -38.01421319796954 L204 -71.97969543147208 z"/>
<path fill="#fffcf7" stroke="#fffcf7" d="M360 19.999999999999993 L0 19.999999999999993 L0 12.934010152284246 L360 12.934010152284246 z"/>
<path fill="#fffcf7" stroke="#fffcf7" d="M0 20 L0 -404.5685279187817 L0 -411.6345177664974 L0 12.934010152284262 z"/>
<path fill="#fffcf7" stroke="#fffcf7" d="M360 -166.81015228426395 L360 20 L360 12.934010152284262 L360 -173.8761421319797 z"/>
<path fill="#fffcf7" stroke="#fffcf7" d="M324 -166.810152284264 L360 -166.810152284264 L360 -173.87614213197972 L324 -173.87614213197972 z"/>
<path fill="#fffcf7" stroke="#fffcf7" d="M324 -404.5685279187817 L324 -166.81015228426395 L324 -173.8761421319797 L324 -411.6345177664974 z"/>
<path fill="#fffcf7" stroke="#fffcf7" d="M0 -404.56852791878174 L324 -404.56852791878174 L324 -411.6345177664974 L0 -411.6345177664974 z"/>
<path fill="#fffcf7" stroke="#fffcf7" d="M360 12.934010152284262 L0 12.934010152284262 L0 -411.6345177664974 L324 -411.6345177664974 L324 -173.87614213197966 L360 -173.87614213197966 z M204 -38.01421319796953 L228 -38.01421319796953 L228 -71.97969543147207 L204 -71.97969543147207 z"/>
<path fill="#fffcf7" stroke="#fffcf7" d="M0 19.999999999999996 L360 19.999999999999996 L360 -166.81015228426395 L324 -166.81015228426395 L324 -404.5685279187817 L0 -404.5685279187817 z M228 -64.91370558375633 L228 -30.9482233502538 L204 -30.9482233502538 L204 -64.91370558375633 z"/>
<path fill="#fffcf7" stroke="#fffcf7" d="M228 -107.30964467005076 L228 -64.91370558375634 L228 -30.948223350253805 L228 -73.34416243654822 z"/>
<path fill="#fffcf7" stroke="#fffcf7" d="M204 -107.30964467005076 L204 -64.91370558375635 L228 -64.91370558375635 L228 -107.30964467005076 z"/>
<path fill="#fffcf7" stroke="#fffcf7" d="M204 -73.34416243654822 L204 -30.948223350253805 L204 -64.91370558375634 L204 -107.30964467005076 z"/>
<path fill="#fffcf7" stroke="#fffcf7" d="M228 -73.34416243654823 L228 -30.948223350253805 L204 -30.948223350253805 L204 -73.34416243654823 z"/>
<path fill="#fffcf7" stroke="#fffcf7" d="M228 -107.30964467005074 L228 -73.3441624365482 L204 -73.3441624365482 L204 -107.30964467005074 z"/>
<path fill="#fffcf7" stroke="#fffcf7" d="M228 -64.91370558375634 L204 -64.91370558375634 L204 -30.9482233502538 L228 -30.9482233502538 z"/>
<path fill="#fffcf7" stroke="#fffcf7" d="M227 -246.03857868020305 L227 -236.146192893401 L227 -221.99390862944162 L227 -231.88629441624363 z"/>
<path fill="#fffcf7" stroke="#fffcf7" d="M217 -246.03857868020307 L217 -236.14619289340104 L227 -236.14619289340104 L227 -246.03857868020307 z"/>
<path fill="#fffcf7" stroke="#fffcf7" d="M217 -231.88629441624363 L217 -221.99390862944162 L217 -236.146192893401 L217 -246.03857868020305 z"/>
<path fill="#fffcf7" stroke="#fffcf7" d="M227 -231.88629441624366 L227 -221.99390862944165 L217 -221.99390862944165 L217 -231.88629441624366 z"/>
<path fill="#fffcf7" stroke="#fffcf7" d="M227 -246.038578680203 L227 -231.88629441624363 L217 -231.88629441624363 L217 -246.038578680203 z"/>
<path fill="#fffcf7" stroke="#fffcf7" d="M227 -236.14619289340098 L217 -236.14619289340098 L217 -221.99390862944162 L227 -221.99390862944162 z"/>
<path fill="#fffcf7" stroke="#fffcf7" d="M222.3703703703703 -269.4032495000769 L222.3703703703703 -259.5108637132749 L220.88888888888883 -259.5881816998568 L220.88888888888883 -269.48056748665886 z"/>
<path fill="#fffcf7" stroke="#fffcf7" d="M223.82926829268285 -269.6338526168388 L223.82926829268285 -259.74146683003676 L222.37037037037032 -259.5108637132749 L222.37037037037032 -269.4032495000769 z"/>
<path fill="#fffcf7" stroke="#fffcf7" d="M225.1132075471698 -270.15899359964686 L225.1132075471698 -260.2666078128448 L223.82926829268288 -259.74146683003676 L223.82926829268288 -269.63385261683874 z"/>
<path fill="#fffcf7" stroke="#fffcf7" d="M226.13043478260863 -270.93775380710656 L226.13043478260866 -261.0453680203045 L225.11320754716976 -260.2666078128448 L225.11320754716974 -270.1589935996468 z"/>
<path fill="#fffcf7" stroke="#fffcf7" d="M226.78260869565216 -271.88730964467 L226.78260869565213 -261.99492385786795 L226.13043478260866 -261.0453680203045 L226.13043478260866 -270.93775380710656 z"/>
<path fill="#fffcf7" stroke="#fffcf7" d="M226.99999999999997 -272.92791878172585 L226.99999999999997 -263.0355329949238 L226.78260869565216 -261.994923857868 L226.78260869565216 -271.88730964467 z"/>
<path fill="#fffcf7" stroke="#fffcf7" d="M226.78260869565216 -273.9685279187817 L226.78260869565216 -264.0761421319796 L227 -263.0355329949238 L227 -272.92791878172585 z"/>
<path fill="#fffcf7" stroke="#fffcf7" d="M226.13043478260872 -274.9180837563451 L226.13043478260872 -265.02569796954305 L226.7826086956522 -264.0761421319796 L226.7826086956522 -273.96852791878166 z"/>
<path fill="#fffcf7" stroke="#fffcf7" d="M225.11320754716982 -275.6968439638049 L225.11320754716982 -265.8044581770028 L226.13043478260872 -265.0256979695431 L226.13043478260875 -274.9180837563451 z"/>
<path fill="#fffcf7" stroke="#fffcf7" d="M223.82926829268288 -276.221984946613 L223.82926829268288 -266.329599159811 L225.1132075471698 -265.8044581770029 L225.1132075471698 -275.6968439638049 z"/>
<path fill="#fffcf7" stroke="#fffcf7" d="M222.37037037037032 -276.45258806337483 L222.37037037037032 -266.56020227657285 L223.82926829268285 -266.329599159811 L223.82926829268285 -276.22198494661296 z"/>
<path fill="#fffcf7" stroke="#fffcf7" d="M217.06024096385542 -272.39720812182736 L217.06024096385542 -262.5048223350254 L217.06024096385542 -263.5662436548223 L217.06024096385542 -273.45862944162434 z"/>
<path fill="#fffcf7" stroke="#fffcf7" d="M217.0602409638554 -273.4586294416243 L217.0602409638554 -263.5662436548223 L217.49999999999997 -264.57382476274546 L217.49999999999997 -274.4662105495475 z"/>
<path fill="#fffcf7" stroke="#fffcf7" d="M217.49999999999997 -274.4662105495475 L217.49999999999997 -264.57382476274546 L218.3333333333333 -265.44142131979686 L218.3333333333333 -275.33380710659895 z"/>
<path fill="#fffcf7" stroke="#fffcf7" d="M218.33333333333323 -275.3338071065989 L218.33333333333323 -265.44142131979686 L219.49999999999991 -266.101861252115 L219.49999999999997 -275.9942470389171 z"/>
<path fill="#fffcf7" stroke="#fffcf7" d="M219.49999999999997 -275.9942470389171 L219.49999999999997 -266.10186125211504 L220.88888888888883 -266.48288428999086 L220.88888888888883 -276.3752700767929 z"/>
<path fill="#fffcf7" stroke="#fffcf7" d="M220.88888888888883 -276.3752700767929 L220.88888888888883 -266.48288428999086 L222.3703703703703 -266.5602022765728 L222.3703703703703 -276.4525880633749 z"/>
<path fill="#fffcf7" stroke="#fffcf7" d="M218.33333333333334 -270.52203045685275 L218.33333333333331 -260.6296446700507 L217.50000000000003 -261.4972412271021 L217.50000000000003 -271.38962701390415 z"/>
<path fill="#fffcf7" stroke="#fffcf7" d="M217.5 -271.38962701390415 L217.5 -261.4972412271021 L217.06024096385542 -262.5048223350253 L217.06024096385542 -272.39720812182736 z"/>
<path fill="#fffcf7" stroke="#fffcf7" d="M220.88888888888883 -269.48056748665886 L220.88888888888883 -259.5881816998568 L219.49999999999997 -259.96920473773264 L219.49999999999997 -269.8615905245347 z"/>
<path fill="#fffcf7" stroke="#fffcf7" d="M219.50000000000009 -269.8615905245346 L219.50000000000006 -259.9692047377326 L218.3333333333334 -260.6296446700507 L218.33333333333343 -270.5220304568527 z"/>
<path fill="#fffcf7" stroke="#fffcf7" d="M222.37037037037035 -269.40324950007687 L220.88888888888889 -269.4805674866588 L219.5 -269.8615905245346 L218.33333333333331 -270.5220304568527 L217.5 -271.38962701390415 L217.06024096385542 -272.39720812182736 L217.06024096385542 -273.4586294416243 L217.5 -274.4662105495475 L218.33333333333331 -275.33380710659895 L219.5 -275.994247038917 L220.88888888888889 -276.3752700767929 L222.37037037037035 -276.4525880633748 L223.8292682926829 -276.22198494661296 L225.1132075471698 -275.69684396380484 L226.1304347826087 -274.91808375634514 L226.78260869565216 -273.96852791878166 L227 -272.92791878172585 L226.78260869565216 -271.88730964467004 L226.1304347826087 -270.93775380710656 L225.1132075471698 -270.15899359964686 L223.8292682926829 -269.63385261683874 z"/>
<path fill="#fffcf7" stroke="#fffcf7" d="M220.88888888888889 -259.58818169985676 L222.37037037037035 -259.51086371327483 L223.8292682926829 -259.7414668300367 L225.1132075471698 -260.26660781284477 L226.1304347826087 -261.0453680203045 L226.78260869565216 -261.99492385786795 L227 -263.0355329949238 L226.78260869565216 -264.0761421319796 L226.1304347826087 -265.0256979695431 L225.1132075471698 -265.8044581770028 L223.8292682926829 -266.32959915981087 L222.37037037037035 -266.5602022765728 L220.88888888888889 -266.4828842899908 L219.5 -266.101861252115 L218.33333333333331 -265.44142131979686 L217.5 -264.57382476274546 L217.06024096385542 -263.5662436548223 L217.06024096385542 -262.5048223350253 L217.5 -261.4972412271021 L218.33333333333331 -260.6296446700507 L219.5 -259.96920473773264 z"/>
<path fill="#fffcf7" stroke="#fffcf7" d="M258.97959183673464 -270.18591370558374 L258.97959183673464 -260.29352791878176 L257.66666666666663 -260.2175451150518 L257.66666666666663 -270.1099309018538 z"/>
<path fill="#fffcf7" stroke="#fffcf7" d="M260.19047619047615 -270.5564549320894 L260.19047619047615 -260.6640691452874 L258.97959183673464 -260.2935279187817 L258.97959183673464 -270.18591370558374 z"/>
<path fill="#fffcf7" stroke="#fffcf7" d="M261.157894736842 -271.19104753114897 L261.157894736842 -261.29866174434693 L260.19047619047615 -260.6640691452874 L260.19047619047615 -270.55645493208937 z"/>
<path fill="#fffcf7" stroke="#fffcf7" d="M261.78378378378375 -272.00993277541494 L261.78378378378375 -262.1175469886129 L261.1578947368421 -261.298661744347 L261.1578947368421 -271.191047531149 z"/>
<path fill="#fffcf7" stroke="#fffcf7" d="M261.99999999999994 -272.92791878172585 L261.99999999999994 -263.0355329949238 L261.78378378378375 -262.11754698861296 L261.78378378378375 -272.00993277541494 z"/>
<path fill="#fffcf7" stroke="#fffcf7" d="M261.78378378378375 -273.84590478803676 L261.78378378378375 -263.9535190012347 L262 -263.0355329949238 L262 -272.92791878172585 z"/>
<path fill="#fffcf7" stroke="#fffcf7" d="M261.1578947368421 -274.6647900323027 L261.1578947368421 -264.77240424550064 L261.7837837837838 -263.9535190012347 L261.78378378378375 -273.8459047880367 z"/>
<path fill="#fffcf7" stroke="#fffcf7" d="M260.1904761904762 -275.2993826313623 L260.1904761904762 -265.4069968445603 L261.15789473684214 -264.77240424550064 L261.15789473684214 -274.6647900323026 z"/>
<path fill="#fffcf7" stroke="#fffcf7" d="M258.97959183673464 -275.66992385786807 L258.97959183673464 -265.777538071066 L260.19047619047615 -265.4069968445603 L260.19047619047615 -275.2993826313624 z"/>
<path fill="#fffcf7" stroke="#fffcf7" d="M257.66666666666663 -275.745906661598 L257.66666666666663 -265.85352087479595 L258.97959183673464 -265.777538071066 L258.97959183673464 -275.669923857868 z"/>
<path fill="#fffcf7" stroke="#fffcf7" d="M256.38961038961037 -275.52250423011844 L256.38961038961037 -265.6301184433164 L257.66666666666663 -265.85352087479595 L257.66666666666663 -275.745906661598 z"/>
<path fill="#fffcf7" stroke="#fffcf7" d="M255.29032258064515 -275.0091370558375 L255.29032258064515 -265.11675126903555 L256.3896103896103 -265.6301184433164 L256.3896103896103 -275.52250423011844 z"/>
<path fill="#fffcf7" stroke="#fffcf7" d="M254.47999999999996 -274.2757553782934 L254.47999999999996 -264.3833695914914 L255.29032258064512 -265.1167512690355 L255.29032258064512 -275.0091370558375 z"/>
<path fill="#fffcf7" stroke="#fffcf7" d="M254.05797101449272 -273.3910844485463 L254.05797101449272 -263.4986986617443 L254.48 -264.3833695914914 L254.47999999999996 -274.2757553782934 z"/>
<path fill="#fffcf7" stroke="#fffcf7" d="M254.05797101449275 -272.46475311490536 L254.05797101449275 -262.5723673281033 L254.05797101449275 -263.4986986617443 L254.05797101449275 -273.39108444854634 z"/>
<path fill="#fffcf7" stroke="#fffcf7" d="M254.48000000000002 -271.58008218515823 L254.48 -261.68769639835625 L254.05797101449275 -262.5723673281033 L254.05797101449275 -272.46475311490536 z"/>
<path fill="#fffcf7" stroke="#fffcf7" d="M255.29032258064518 -270.8467005076142 L255.29032258064518 -260.95431472081214 L254.48000000000002 -261.68769639835625 L254.48000000000002 -271.5800821851583 z"/>
<path fill="#fffcf7" stroke="#fffcf7" d="M257.66666666666663 -270.10993090185383 L257.66666666666663 -260.2175451150518 L256.38961038961037 -260.4409475465313 L256.38961038961037 -270.33333333333337 z"/>
<path fill="#fffcf7" stroke="#fffcf7" d="M256.3896103896103 -270.33333333333337 L256.3896103896103 -260.4409475465314 L255.29032258064515 -260.95431472081225 L255.29032258064515 -270.84670050761423 z"/>
<path fill="#fffcf7" stroke="#fffcf7" d="M258.97959183673464 -270.1859137055837 L257.66666666666663 -270.1099309018538 L256.38961038961037 -270.33333333333326 L255.29032258064515 -270.8467005076142 L254.48 -271.58008218515823 L254.05797101449275 -272.46475311490536 L254.05797101449275 -273.39108444854634 L254.48 -274.2757553782934 L255.29032258064515 -275.0091370558375 L256.38961038961037 -275.5225042301184 L257.66666666666663 -275.7459066615979 L258.97959183673464 -275.669923857868 L260.19047619047615 -275.2993826313623 L261.1578947368421 -274.6647900323027 L261.78378378378375 -273.8459047880367 L262 -272.92791878172585 L261.78378378378375 -272.00993277541494 L261.1578947368421 -271.19104753114897 L260.19047619047615 -270.5564549320894 z"/>
<path fill="#fffcf7" stroke="#fffcf7" d="M257.66666666666663 -260.2175451150517 L258.97959183673464 -260.2935279187817 L260.19047619047615 -260.6640691452874 L261.1578947368421 -261.298661744347 L261.78378378378375 -262.1175469886129 L262 -263.0355329949238 L261.78378378378375 -263.9535190012347 L261.1578947368421 -264.77240424550064 L260.19047619047615 -265.40699684456024 L258.97959183673464 -265.7775380710659 L257.66666666666663 -265.8535208747959 L256.38961038961037 -265.63011844331635 L255.29032258064515 -265.1167512690355 L254.48 -264.3833695914914 L254.05797101449275 -263.4986986617443 L254.05797101449275 -262.5723673281033 L254.48 -261.68769639835625 L255.29032258064515 -260.95431472081214 L256.38961038961037 -260.4409475465313 z"/>
<path fill="#fffcf7" stroke="#fffcf7" d="M277.7692307692308 -273.58498912255254 L277.7692307692307 -263.6926033357505 L278 -263.0355329949238 L278 -272.92791878172585 z"/>
<path fill="#fffcf7" stroke="#fffcf7" d="M277.13513513513516 -274.0934010152284 L277.13513513513516 -264.20101522842634 L277.7692307692308 -263.69260333575045 L277.76923076923083 -273.5849891225525 z"/>
<path fill="#fffcf7" stroke="#fffcf7" d="M276.23999999999995 -274.3314511054243 L276.23999999999995 -264.4390653186223 L277.1351351351351 -264.2010152284264 L277.1351351351351 -274.09340101522844 z"/>
<path fill="#fffcf7" stroke="#fffcf7" d="M275.2903225806451 -274.25184214835434 L275.2903225806451 -264.3594563615523 L276.23999999999995 -264.4390653186223 L276.23999999999995 -274.3314511054243 z"/>
<path fill="#fffcf7" stroke="#fffcf7" d="M274.50485436893194 -273.8650294965015 L274.50485436893194 -263.9726437096995 L275.2903225806451 -264.3594563615523 L275.2903225806451 -274.25184214835434 z"/>
<path fill="#fffcf7" stroke="#fffcf7" d="M274.0588235294117 -273.26757360406083 L274.0588235294117 -263.37518781725885 L274.504854368932 -263.9726437096995 L274.504854368932 -273.8650294965015 z"/>
<path fill="#fffcf7" stroke="#fffcf7" d="M274.0588235294117 -272.5882639593908 L274.0588235294117 -262.6958781725888 L274.0588235294117 -263.37518781725885 L274.0588235294117 -273.2675736040609 z"/>
<path fill="#fffcf7" stroke="#fffcf7" d="M274.504854368932 -271.99080806695014 L274.504854368932 -262.0984222801481 L274.05882352941177 -262.6958781725888 L274.05882352941177 -272.5882639593908 z"/>
<path fill="#fffcf7" stroke="#fffcf7" d="M277.1351351351351 -271.7624365482234 L277.1351351351351 -261.8700507614213 L276.23999999999995 -261.6320006712254 L276.23999999999995 -271.52438645802744 z"/>
<path fill="#fffcf7" stroke="#fffcf7" d="M275.2903225806451 -271.6039954150975 L275.2903225806451 -261.71160962829543 L274.50485436893194 -262.0984222801482 L274.50485436893194 -271.99080806695025 z"/>
<path fill="#fffcf7" stroke="#fffcf7" d="M276.23999999999995 -271.5243864580275 L276.23999999999995 -261.6320006712254 L275.2903225806451 -261.7116096282954 L275.2903225806451 -271.6039954150975 z"/>
<path fill="#fffcf7" stroke="#fffcf7" d="M277.7692307692307 -272.27084844089916 L277.7692307692307 -262.37846265409706 L277.1351351351351 -261.8700507614213 L277.1351351351351 -271.7624365482233 z"/>
<path fill="#fffcf7" stroke="#fffcf7" d="M277.99999999999994 -272.92791878172585 L277.99999999999994 -263.0355329949238 L277.7692307692307 -262.3784626540971 L277.7692307692307 -272.27084844089916 z"/>
<path fill="#fffcf7" stroke="#fffcf7" d="M277.7692307692307 -273.58498912255254 L278 -272.92791878172585 L277.7692307692307 -272.27084844089916 L277.1351351351351 -271.7624365482233 L276.23999999999995 -271.5243864580274 L275.2903225806451 -271.60399541509736 L274.504854368932 -271.99080806695014 L274.0588235294117 -272.5882639593908 L274.0588235294117 -273.26757360406083 L274.504854368932 -273.86502949650156 L275.2903225806451 -274.2518421483543 L276.23999999999995 -274.33145110542426 L277.1351351351351 -274.0934010152284 z"/>
<path fill="#fffcf7" stroke="#fffcf7" d="M277.7692307692307 -263.6926033357505 L277.1351351351351 -264.20101522842634 L276.23999999999995 -264.4390653186223 L275.2903225806451 -264.3594563615523 L274.504854368932 -263.97264370969947 L274.0588235294117 -263.37518781725885 L274.0588235294117 -262.6958781725888 L274.504854368932 -262.09842228014816 L275.2903225806451 -261.7116096282953 L276.23999999999995 -261.63200067122534 L277.1351351351351 -261.8700507614213 L277.7692307692307 -262.3784626540971 L278 -263.0355329949238 z"/>
</svg>