<?xml version="1.0" encoding="UTF-8"?>
<!-- Generated by jsxcad -->
<!DOCTYPE svg PUBLIC "-//W3C//DTD SVG 1.1 Tiny//EN" "http://www.w3.org/Graphics/SVG/1.1/DTD/svg11-tiny.dtd">
<svg baseProfile="tiny" height="431.6345177664977mm" width="360.0000000000003mm" viewBox="-8.526512829121203e-14 -20.000000000000117 360.0000000000003 431.6345177664977" version="1.1" stroke="black" stroke-width=".1" fill="none" xmlns="http://www.w3.org/2000/svg">
<path fill="#fffcf7" stroke="#fffcf7" d="M204 -38.01421319796956 L204 -30.948223350253823 L228 -30.948223350253823 L228 -38.01421319796956 z"/>
<path fill="#fffcf7" stroke="#fffcf7" d="M204 -71.97969543147208 L228 -71.97969543147208 L228 -64.91370558375634 L204 -64.91370558375634 z"/>
<path fill="#fffcf7" stroke="#fffcf7" d="M228 -43.6751269035533 L228 -38.01421319796954 L228 -30.948223350253805 L228 -64.91370558375634 L228 -71.97969543147208 z"/>
<path fill="#fffcf7" stroke="#fffcf7" d="M204 -64.91370558375634 L204 -30.948223350253805 L204 -38.01421319796954 L204 -71.97969543147208 z"/>
<path fill="#fffcf7" stroke="#fffcf7" d="M360 19.999999999999993 L0 19.999999999999993 L0 12.934010152284246 L360 12.934010152284246 z"/>
<path fill="#fffcf7" stroke="#fffcf7" d="M0 20 L0 -404.5685279187817 L0 -411.6345177664974 L0 12.934010152284262 z"/>
<path fill="#fffcf7" stroke="#fffcf7" d="M360 -166.81015228426395 L360 20 L360 12.934010152284262 L360 -173.8761421319797 z"/>
<path fill="#fffcf7" stroke="#fffcf7" d="M324 -166.810152284264 L360 -166.810152284264 L360 -173.87614213197972 L324 -173.87614213197972 z"/>
<path fill="#fffcf7" stroke="#fffcf7" d="M324 -404.5685279187817 L324 -166.81015228426395 L324 -173.8761421319797 L324 -411.6345177664974 z"/>
<path fill="#fffcf7" stroke="#fffcf7" d="M0 -404.56852791878174 L324 -404.56852791878174 L324 -411.6345177664974 L0 -411.6345177664974 z"/>
<path fill="#fffcf7" stroke="#fffcf7" d="M360 12.934010152284262 L0 12.934010152284262 L0 -411.6345177664974 L324 -411.6345177664974 L324 -173.87614213197966 L360 -173.87614213197966 z M204 -38.01421319796953 L228 -38.01421319796953 L228 -71.97969543147207 L204 -71.97969543147207 z"/>
<path fill="#fffcf7" stroke="#fffcf7" d="M0 19.999999999999996 L360 19.999999999999996 L360 -166.81015228426395 L324 -166.81015228426395 L324 -404.5685279187817 L0 -404.5685279187817 z M228 -64.91370558375633 L228 -30.9482233502538 L204 -30.9482233502538 L204 -64.91370558375633 z"/>
<path fill="#fffcf7" stroke="#fffcf7" d="M228 -107.30964467005076 L228 -64.91370558375634 L228 -30.948223350253805 L228 -73.34416243654822 z"/>
<path fill="#fffcf7" stroke="#fffcf7" d="M204 -107.30964467005076 L204 -64.91370558375635 L228 -64.91370558375635 L228 -107.30964467005076 z"/>
<path fill="#fffcf7" stroke="#fffcf7" d="M204 -73.34416243654822 L204 -30.948223350253805 L204 -64.91370558375634 L204 -107.30964467005076 z"/>
<path fill="#fffcf7" stroke="#fffcf7" d="M228 -73.34416243654823 L228 -30.948223350253805 L204 -30.948223350253805 L204 -73.34416243654823 z"/>
<path fill="#fffcf7" stroke="#fffcf7" d="M228 -107.30964467005074 L228 -73.3441624365482 L204 -73.3441624365482 L204 -107.30964467005074 z"/>
<path fill="#fffcf7" stroke="#fffcf7" d="M228 -64.91370558375634 L204 -64.91370558375634 L204 -30.9482233502538 L228 -30.9482233502538 z"/>
<path fill="#fffcf7" stroke="#fffcf7" d="M227 -246.03857868020305 L227 -236.146192893401 L227 -221.99390862944162 L227 -231.88629441624363 z"/>
<path fill="#fffcf7" stroke="#fffcf7" d="M217 -246.03857868020307 L217 -236.14619289340104 L227 -236.14619289340104 L227 -246.03857868020307 z"/>
<path fill="#fffcf7" stroke="#fffcf7" d="M217 -231.88629441624363 L217 -221.99390862944162 L217 -236.146192893401 L217 -246.03857868020305 z"/>
<path fill="#fffcf7" stroke="#fffcf7" d="M227 -231.88629441624366 L227 -221.99390862944165 L217 -221.99390862944165 L217 -231.88629441624366 z"/>
<path fill="#fffcf7" stroke="#fffcf7" d="M227 -246.038578680203 L227 -231.88629441624363 L217 -231.88629441624363 L217 -246.038578680203 z"/>
<path fill="#fffcf7" stroke="#fffcf7" d="M227 -236.14619289340098 L217 -236.14619289340098 L217 -221.99390862944162 L227 -221.99390862944162 z"/>
<path fill="#fffcf7" stroke="#fffcf7" d="M222.3703703703703 -269.4032495000769 L222.3703703703703 -259.5108637132749 L220.88888888888883 -259.5881816998568 L220.88888888888883 -269.48056748665886 z"/>
<path fill="#fffcf7" stroke="#fffcf7" d="M223.82926829268285 -269.6338526168388 L223.82926829268285 -259.74146683003676 L222.37037037037032 -259.5108637132749 L222.37037037037032 -269.4032495000769 z"/>
<path fill="#fffcf7" stroke="#fffcf7" d="M225.1132075471698 -270.15899359964686 L225.1132075471698 -260.2666078128448 L223.82926829268288 -259.74146683003676 L223.82926829268288 -269.63385261683874 z"/>
<path fill="#fffcf7" stroke="#fffcf7" d="M226.13043478260863 -270.93775380710656 L226.13043478260866 -261.0453680203045 L225.11320754716976 -260.2666078128448 L225.11320754716974 -270.1589935996468 z"/>
<path fill="#fffcf7" stroke="#fffcf7" d="M226.78260869565216 -271.88730964467 L226.78260869565213 -261.99492385786795 L226.13043478260866 -261.0453680203045 L226.13043478260866 -270.93775380710656 z"/>
<path fill="#fffcf7" stroke="#fffcf7" d="M226.99999999999997 -272.92791878172585 L226.99999999999997 -263.0355329949238 L226.78260869565216 -261.994923857868 L226.78260869565216 -271.88730964467 z"/>
<path fill="#fffcf7" stroke="#fffcf7" d="M226.78260869565216 -273.9685279187817 L226.78260869565216 -264.0761421319796 L227 -263.0355329949238 L227 -272.92791878172585 z"/>
<path fill="#fffcf7" stroke="#fffcf7" d="M226.13043478260872 -274.9180837563451 L226.13043478260872 -265.02569796954305 L226.7826086956522 -264.0761421319796 L226.7826086956522 -273.96852791878166 z"/>
<path fill="#fffcf7" stroke="#fffcf7" d="M225.11320754716982 -275.6968439638049 L225.11320754716982 -265.8044581770028 L226.13043478260872 -265.0256979695431 L226.13043478260875 -274.9180837563451 z"/>
<path fill="#fffcf7" stroke="#fffcf7" d="M223.82926829268288 -276.221984946613 L223.82926829268288 -266.329599159811 L225.1132075471698 -265.8044581770029 L225.1132075471698 -275.6968439638049 z"/>
<path fill="#fffcf7" stroke="#fffcf7" d="M222.37037037037032 -276.45258806337483 L222.37037037037032 -266.56020227657285 L223.82926829268285 -266.329599159811 L223.82926829268285 -276.22198494661296 z"/>
<path fill="#fffcf7" stroke="#fffcf7" d="M217.06024096385542 -272.39720812182736 L217.06024096385542 -262.5048223350254 L217.06024096385542 -263.5662436548223 L217.06024096385542 -273.45862944162434 z"/>
<path fill="#fffcf7" stroke="#fffcf7" d="M217.0602409638554 -273.4586294416243 L217.0602409638554 -263.5662436548223 L217.49999999999997 -264.57382476274546 L217.49999999999997 -274.4662105495475 z"/>
<path fill="#fffcf7" stroke="#fffcf7" d="M217.49999999999997 -274.4662105495475 L217.49999999999997 -264.57382476274546 L218.3333333333333 -265.44142131979686 L218.3333333333333 -275.33380710659895 z"/>
<path fill="#fffcf7" stroke="#fffcf7" d="M218.33333333333323 -275.3338071065989 L218.33333333333323 -265.44142131979686 L219.49999999999991 -266.101861252115 L219.49999999999997 -275.9942470389171 z"/>
<path fill="#fffcf7" stroke="#fffcf7" d="M219.49999999999997 -275.9942470389171 L219.49999999999997 -266.10186125211504 L220.88888888888883 -266.48288428999086 L220.88888888888883 -276.3752700767929 z"/>
<path fill="#fffcf7" stroke="#fffcf7" d="M220.88888888888883 -276.3752700767929 L220.88888888888883 -266.48288428999086 L222.3703703703703 -266.5602022765728 L222.3703703703703 -276.4525880633749 z"/>
<path fill="#fffcf7" stroke="#fffcf7" d="M218.33333333333334 -270.52203045685275 L218.33333333333331 -260.6296446700507 L217.50000000000003 -261.4972412271021 L217.50000000000003 -271.38962701390415 z"/>
<path fill="#fffcf7" stroke="#fffcf7" d="M217.5 -271.38962701390415 L217.5 -261.4972412271021 L217.06024096385542 -262.5048223350253 L217.06024096385542 -272.39720812182736 z"/>
<path fill="#fffcf7" stroke="#fffcf7" d="M220.88888888888883 -269.48056748665886 L220.88888888888883 -259.5881816998568 L219.49999999999997 -259.96920473773264 L219.49999999999997 -269.8615905245347 z"/>
<path fill="#fffcf7" stroke="#fffcf7" d="M219.50000000000009 -269.8615905245346 L219.50000000000006 -259.9692047377326 L218.3333333333334 -260.6296446700507 L218.33333333333343 -270.5220304568527 z"/>
<path fill="#fffcf7" stroke="#fffcf7" d="M222.37037037037035 -269.40324950007687 L220.88888888888889 -269.4805674866588 L219.5 -269.8615905245346 L218.33333333333331 -270.5220304568527 L217.5 -271.38962701390415 L217.06024096385542 -272.39720812182736 L217.06024096385542 -273.4586294416243 L217.5 -274.4662105495475 L218.33333333333331 -275.33380710659895 L219.5 -275.994247038917 L220.88888888888889 -276.3752700767929 L222.37037037037035 -276.4525880633748 L223.8292682926829 -276.22198494661296 L225.1132075471698 -275.69684396380484 L226.1304347826087 -274.91808375634514 L226.78260869565216 -273.96852791878166 L227 -272.92791878172585 L226.78260869565216 -271.88730964467004 L226.1304347826087 -270.93775380710656 L225.1132075471698 -270.15899359964686 L223.8292682926829 -269.63385261683874 z"/>
<path fill="#fffcf7" stroke="#fffcf7" d="M220.88888888888889 -259.58818169985676 L222.37037037037035 -259.51086371327483 L223.8292682926829 -259.7414668300367 L225.1132075471698 -260.26660781284477 L226.1304347826087 -261.0453680203045 L226.78260869565216 -261.99492385786795 L227 -263.0355329949238 L226.78260869565216 -264.0761421319796 L226.1304347826087 -265.0256979695431 L225.1132075471698 -265.8044581770028 L223.8292682926829 -266.32959915981087 L222.37037037037035 -266.5602022765728 L220.88888888888889 -266.4828842899908 L219.5 -266.101861252115 L218.33333333333331 -265.44142131979686 L217.5 -264.57382476274546 L217.06024096385542 -263.5662436548223 L217.06024096385542 -262.5048223350253 L217.5 -261.4972412271021 L218.33333333333331 -260.6296446700507 L219.5 -259.96920473773264 z"/>
<path fill="#fffcf7" stroke="#fffcf7" d="M258.97959183673464 -270.18591370558374 L258.97959183673464 -260.29352791878176 L257.66666666666663 -260.2175451150518 L257.66666666666663 -270.1099309018538 z"/>
<path fill="#fffcf7" stroke="#fffcf7" d="M260.19047619047615 -270.5564549320894 L260.19047619047615 -260.6640691452874 L258.97959183673464 -260.2935279187817 L258.97959183673464 -270.18591370558374 z"/>
<path fill="#fffcf7" stroke="#fffcf7" d="M261.157894736842 -271.19104753114897 L261.157894736842 -261.29866174434693 L260.19047619047615 -260.6640691452874 L260.19047619047615 -270.55645493208937 z"/>
<path fill="#fffcf7" stroke="#fffcf7" d="M261.78378378378375 -272.00993277541494 L261.78378378378375 -262.1175469886129 L261.1578947368421 -261.298661744347 L261.1578947368421 -271.191047531149 z"/>
<path fill="#fffcf7" stroke="#fffcf7" d="M261.99999999999994 -272.92791878172585 L261.99999999999994 -263.0355329949238 L261.78378378378375 -262.11754698861296 L261.78378378378375 -272.00993277541494 z"/>
<path fill="#fffcf7" stroke="#fffcf7" d="M261.78378378378375 -273.84590478803676 L261.78378378378375 -263.9535190012347 L262 -263.0355329949238 L262 -272.92791878172585 z"/>
<path fill="#fffcf7" stroke="#fffcf7" d="M261.1578947368421 -274.6647900323027 L261.1578947368421 -264.77240424550064 L261.7837837837838 -263.9535190012347 L261.78378378378375 -273.8459047880367 z"/>
<path fill="#fffcf7" stroke="#fffcf7" d="M260.1904761904762 -275.2993826313623 L260.1904761904762 -265.4069968445603 L261.15789473684214 -264.77240424550064 L261.15789473684214 -274.6647900323026 z"/>
<path fill="#fffcf7" stroke="#fffcf7" d="M258.97959183673464 -275.66992385786807 L258.97959183673464 -265.777538071066 L260.19047619047615 -265.4069968445603 L260.19047619047615 -275.2993826313624 z"/>
<path fill="#fffcf7" stroke="#fffcf7" d="M257.66666666666663 -275.745906661598 L257.66666666666663 -265.85352087479595 L258.97959183673464 -265.777538071066 L258.97959183673464 -275.669923857868 z"/>
<path fill="#fffcf7" stroke="#fffcf7" d="M256.38961038961037 -275.52250423011844 L256.38961038961037 -265.6301184433164 L257.66666666666663 -265.85352087479595 L257.66666666666663 -275.745906661598 z"/>
<path fill="#fffcf7" stroke="#fffcf7" d="M255.29032258064515 -275.0091370558375 L255.29032258064515 -265.11675126903555 L256.3896103896103 -265.6301184433164 L256.3896103896103 -275.52250423011844 z"/>
<path fill="#fffcf7" stroke="#fffcf7" d="M254.47999999999996 -274.2757553782934 L254.47999999999996 -264.3833695914914 L255.29032258064512 -265.1167512690355 L255.29032258064512 -275.0091370558375 z"/>
<path fill="#fffcf7" stroke="#fffcf7" d="M254.05797101449272 -273.3910844485463 L254.05797101449272 -263.4986986617443 L254.48 -264.3833695914914 L254.47999999999996 -274.2757553782934 z"/>
<path fill="#fffcf7" stroke="#fffcf7" d="M254.05797101449275 -272.46475311490536 L254.05797101449275 -262.5723673281033 L254.05797101449275 -263.4986986617443 L254.05797101449275 -273.39108444854634 z"/>
<path fill="#fffcf7" stroke="#fffcf7" d="M254.48000000000002 -271.58008218515823 L254.48 -261.68769639835625 L254.05797101449275 -262.5723673281033 L254.05797101449275 -272.46475311490536 z"/>
<path fill="#fffcf7" stroke="#fffcf7" d="M255.29032258064518 -270.8467005076142 L255.29032258064518 -260.95431472081214 L254.48000000000002 -261.68769639835625 L254.48000000000002 -271.5800821851583 z"/>
<path fill="#fffcf7" stroke="#fffcf7" d="M257.66666666666663 -270.10993090185383 L257.66666666666663 -260.2175451150518 L256.38961038961037 -260.4409475465313 L256.38961038961037 -270.33333333333337 z"/>
<path fill="#fffcf7" stroke="#fffcf7" d="M256.3896103896103 -270.33333333333337 L256.3896103896103 -260.4409475465314 L255.29032258064515 -260.95431472081225 L255.29032258064515 -270.84670050761423 z"/>
<path fill="#fffcf7" stroke="#fffcf7" d="M258.97959183673464 -270.1859137055837 L257.66666666666663 -270.1099309018538 L256.38961038961037 -270.33333333333326 L255.29032258064515 -270.8467005076142 L254.48 -271.58008218515823 L254.05797101449275 -272.46475311490536 L254.05797101449275 -273.39108444854634 L254.48 -274.2757553782934 L255.29032258064515 -275.0091370558375 L256.38961038961037 -275.5225042301184 L257.66666666666663 -275.7459066615979 L258.97959183673464 -275.669923857868 L260.19047619047615 -275.2993826313623 L261.1578947368421 -274.6647900323027 L261.78378378378375 -273.8459047880367 L262 -272.92791878172585 L261.78378378378375 -272.00993277541494 L261.1578947368421 -271.19104753114897 L260.19047619047615 -270.5564549320894 z"/>
<path fill="#fffcf7" stroke="#fffcf7" d="M257.66666666666663 -260.2175451150517 L258.97959183673464 -260.2935279187817 L260.19047619047615 -260.6640691452874 L261.1578947368421 -261.298661744347 L261.78378378378375 -262.1175469886129 L262 -263.0355329949238 L261.78378378378375 -263.9535190012347 L261.1578947368421 -264.77240424550064 L260.19047619047615 -265.40699684456024 L258.97959183673464 -265.7775380710659 L257.66666666666663 -265.8535208747959 L256.38961038961037 -265.63011844331635 L255.29032258064515 -265.1167512690355 L254.48 -264.3833695914914 L254.05797101449275 -263.4986986617443 L254.05797101449275 -262.5723673281033 L254.48 -261.68769639835625 L255.29032258064515 -260.95431472081214 L256.38961038961037 -260.4409475465313 z"/>
<path fill="#fffcf7" stroke="#fffcf7" d="M277.7692307692308 -273.58498912255254 L277.7692307692307 -263.6926033357505 L278 -263.0355329949238 L278 -272.92791878172585 z"/>
<path fill="#fffcf7" stroke="#fffcf7" d="M277.13513513513516 -274.0934010152284 L277.13513513513516 -264.20101522842634 L277.7692307692308 -263.69260333575045 L277.76923076923083 -273.5849891225525 z"/>
<path fill="#fffcf7" stroke="#fffcf7" d="M276.23999999999995 -274.3314511054243 L276.23999999999995 -264.4390653186223 L277.1351351351351 -264.2010152284264 L277.1351351351351 -274.09340101522844 z"/>
<path fill="#fffcf7" stroke="#fffcf7" d="M275.2903225806451 -274.25184214835434 L275.2903225806451 -264.3594563615523 L276.23999999999995 -264.4390653186223 L276.23999999999995 -274.3314511054243 z"/>
<path fill="#fffcf7" stroke="#fffcf7" d="M274.50485436893194 -273.8650294965015 L274.50485436893194 -263.9726437096995 L275.2903225806451 -264.3594563615523 L275.2903225806451 -274.25184214835434 z"/>
<path fill="#fffcf7" stroke="#fffcf7" d="M274.0588235294117 -273.26757360406083 L274.0588235294117 -263.37518781725885 L274.504854368932 -263.9726437096995 L274.504854368932 -273.8650294965015 z"/>
<path fill="#fffcf7" stroke="#fffcf7" d="M274.0588235294117 -272.5882639593908 L274.0588235294117 -262.6958781725888 L274.0588235294117 -263.37518781725885 L274.0588235294117 -273.2675736040609 z"/>
<path fill="#fffcf7" stroke="#fffcf7" d="M274.504854368932 -271.99080806695014 L274.504854368932 -262.0984222801481 L274.05882352941177 -262.6958781725888 L274.05882352941177 -272.5882639593908 z"/>
<path fill="#fffcf7" stroke="#fffcf7" d="M277.1351351351351 -271.7624365482234 L277.1351351351351 -261.8700507614213 L276.23999999999995 -261.6320006712254 L276.23999999999995 -271.52438645802744 z"/>
<path fill="#fffcf7" stroke="#fffcf7" d="M275.2903225806451 -271.6039954150975 L275.2903225806451 -261.71160962829543 L274.50485436893194 -262.0984222801482 L274.50485436893194 -271.99080806695025 z"/>
<path fill="#fffcf7" stroke="#fffcf7" d="M276.23999999999995 -271.5243864580275 L276.23999999999995 -261.6320006712254 L275.2903225806451 -261.7116096282954 L275.2903225806451 -271.6039954150975 z"/>
<path fill="#fffcf7" stroke="#fffcf7" d="M277.7692307692307 -272.27084844089916 L277.7692307692307 -262.37846265409706 L277.1351351351351 -261.8700507614213 L277.1351351351351 -271.7624365482233 z"/>
<path fill="#fffcf7" stroke="#fffcf7" d="M277.99999999999994 -272.92791878172585 L277.99999999999994 -263.0355329949238 L277.7692307692307 -262.3784626540971 L277.7692307692307 -272.27084844089916 z"/>
<path fill="#fffcf7" stroke="#fffcf7" d="M277.7692307692307 -273.58498912255254 L278 -272.92791878172585 L277.7692307692307 -272.27084844089916 L277.1351351351351 -271.7624365482233 L276.23999999999995 -271.5243864580274 L275.2903225806451 -271.60399541509736 L274.504854368932 -271.99080806695014 L274.0588235294117 -272.5882639593908 L274.0588235294117 -273.26757360406083 L274.504854368932 -273.86502949650156 L275.2903225806451 -274.2518421483543 L276.23999999999995 -274.33145110542426 L277.1351351351351 -274.0934010152284 z"/>
<path fill="#fffcf7" stroke="#fffcf7" d="M277.7692307692307 -263.6926033357505 L277.1351351351351 -264.20101522842634 L276.23999999999995 -264.4390653186223 L275.2903225806451 -264.3594563615523 L274.504854368932 -263.97264370969947 L274.0588235294117 -263.37518781725885 L274.0588235294117 -262.6958781725888 L274.504854368932 -262.09842228014816 L275.2903225806451 -261.7116096282953 L276.23999999999995 -261.63200067122534 L277.1351351351351 -261.8700507614213 L277.7692307692307 -262.3784626540971 L278 -263.0355329949238 z"/>
<path fill="#bababa" stroke="#bababa" d="M37.484764759990455 -268.8212036611586 L37.8480700439478 -267.5686147525802 L11.703907607399582 -249.0420533879483 L11.34060232344224 -250.29464229652672 z"/>
<path fill="#bababa" stroke="#bababa" d="M52.56269205873334 -236.1622292967745 L52.925997342690685 -234.9096403881961 L79.0701597792389 -253.43620175282803 L78.70685449528156 -254.68879066140641 z"/>
<path fill="#bababa" stroke="#bababa" d="M11.340602323442244 -250.29464229652672 L11.703907607399643 -249.04205338794822 L52.925997342690735 -234.9096403881961 L52.56269205873339 -236.1622292967745 z"/>
<path fill="#bababa" stroke="#bababa" d="M78.7068544952816 -254.68879066140641 L79.07015977923895 -253.436201752828 L37.84807004394784 -267.5686147525802 L37.4847647599905 -268.82120366115856 z"/>
<path fill="#bababa" stroke="#bababa" d="M80.77406738663849 -253.59500640981184 L53.21670698054712 -234.06700929574035 L52.85340169658978 -235.3195982043188 L80.41076210268115 -254.8475953183903 z"/>
<path fill="#bababa" stroke="#bababa" d="M37.55736040609142 -268.41124584503586 L80.77406738663854 -253.59500640981187 L80.41076210268119 -254.84759531839026 L37.19405512213404 -269.66383475361437 z"/>
<path fill="#bababa" stroke="#bababa" d="M10 -248.88324873096443 L37.55736040609137 -268.4112458450359 L37.19405512213402 -269.6638347536143 L9.636694716042651 -250.13583763954287 z"/>
<path fill="#bababa" stroke="#bababa" d="M53.216706980547166 -234.06700929574038 L10.000000000000046 -248.88324873096443 L9.636694716042662 -250.13583763954287 L52.85340169658982 -235.31959820431877 z"/>
<path fill="#bababa" stroke="#bababa" d="M52.853401696589785 -235.3195982043188 L9.636694716042653 -250.13583763954287 L37.19405512213402 -269.6638347536143 L80.41076210268115 -254.84759531839026 z M78.70685449528156 -254.68879066140644 L37.484764759990455 -268.82120366115856 L11.340602323442237 -250.29464229652672 L52.56269205873334 -236.16222929677454 z"/>
<path fill="#bababa" stroke="#bababa" d="M37.55736040609137 -268.41124584503586 L9.999999999999998 -248.88324873096443 L53.21670698054712 -234.06700929574038 L80.77406738663849 -253.59500640981187 z M37.95888211312869 -267.53062439505396 L79.07015977923889 -253.43620175282803 L52.92599734269069 -234.9096403881961 L11.703907607399582 -249.04205338794827 L37.8480700439478 -267.5686147525802 z"/>
<path fill="#3c3c3c" stroke="#3c3c3c" d="M78.70685449528156 -254.68879066140641 L79.0701597792389 -253.43620175282803 L52.925997342690685 -234.9096403881961 L52.56269205873334 -236.1622292967745 z"/>
<path fill="#3c3c3c" stroke="#3c3c3c" d="M37.48476475999049 -268.82120366115856 L37.84807004394785 -267.5686147525802 L79.07015977923894 -253.436201752828 L78.70685449528159 -254.68879066140644 z"/>
<path fill="#3c3c3c" stroke="#3c3c3c" d="M11.34060232344224 -250.29464229652672 L11.703907607399582 -249.0420533879483 L37.8480700439478 -267.5686147525802 L37.484764759990455 -268.8212036611586 z"/>
<path fill="#3c3c3c" stroke="#3c3c3c" d="M52.56269205873336 -236.16222929677454 L52.92599734269071 -234.9096403881961 L11.70390760739962 -249.04205338794827 L11.340602323442255 -250.2946422965267 z"/>
<path fill="#3c3c3c" stroke="#3c3c3c" d="M78.70685449528156 -254.68879066140644 L52.56269205873334 -236.16222929677454 L11.340602323442235 -250.2946422965267 L37.484764759990455 -268.8212036611586 z"/>
<path fill="#3c3c3c" stroke="#3c3c3c" d="M79.0701597792389 -253.43620175282803 L37.8480700439478 -267.5686147525802 L11.703907607399582 -249.04205338794827 L52.925997342690685 -234.90964038819607 z"/>
<path fill="#bababa" stroke="#bababa" d="M65.74872415085339 -288.84991864994987 L66.11202943481074 -287.5973297413714 L39.96786699826252 -269.0707683767395 L39.60456171430518 -270.32335728531797 z"/>
<path fill="#bababa" stroke="#bababa" d="M80.82665144959628 -256.19094428556576 L81.18995673355363 -254.93835537698735 L107.33411917010186 -273.4649167416193 L106.9708138861445 -274.71750565019767 z"/>
<path fill="#bababa" stroke="#bababa" d="M39.60456171430524 -270.3233572853179 L39.9678669982626 -269.0707683767395 L81.18995673355364 -254.93835537698737 L80.82665144959631 -256.19094428556576 z"/>
<path fill="#bababa" stroke="#bababa" d="M106.97081388614453 -274.7175056501977 L107.33411917010191 -273.4649167416192 L66.11202943481081 -287.5973297413714 L65.74872415085345 -288.84991864994987 z"/>
<path fill="#bababa" stroke="#bababa" d="M109.03802677750143 -273.6237213986031 L81.48066637141007 -254.09572428453166 L81.11736108745272 -255.34831319311007 L108.67472149354408 -274.8763103071815 z"/>
<path fill="#bababa" stroke="#bababa" d="M65.82131979695434 -288.4399608338272 L109.03802677750147 -273.6237213986031 L108.67472149354413 -274.87631030718154 L65.45801451299701 -289.69254974240556 z"/>
<path fill="#bababa" stroke="#bababa" d="M38.26395939086294 -268.91196371975565 L65.8213197969543 -288.4399608338272 L65.45801451299695 -289.69254974240556 L37.90065410690559 -270.1645526283341 z"/>
<path fill="#bababa" stroke="#bababa" d="M81.4806663714101 -254.09572428453163 L38.26395939086297 -268.91196371975565 L37.900654106905655 -270.1645526283341 L81.11736108745275 -255.34831319311004 z"/>
<path fill="#bababa" stroke="#bababa" d="M81.11736108745271 -255.34831319311007 L37.90065410690559 -270.1645526283341 L65.45801451299695 -289.69254974240556 L108.67472149354407 -274.8763103071815 z M106.9708138861445 -274.71750565019767 L65.74872415085339 -288.84991864994987 L39.60456171430518 -270.32335728531797 L80.82665144959628 -256.19094428556576 z"/>
<path fill="#bababa" stroke="#bababa" d="M65.8213197969543 -288.4399608338272 L38.26395939086294 -268.9119637197557 L81.48066637141005 -254.09572428453163 L109.03802677750143 -273.6237213986031 z M66.22284150399163 -287.5593393838452 L107.33411917010184 -273.4649167416193 L81.18995673355361 -254.93835537698735 L39.96786699826252 -269.0707683767395 L66.11202943481074 -287.5973297413714 z"/>
<path fill="#3c3c3c" stroke="#3c3c3c" d="M106.9708138861445 -274.71750565019767 L107.33411917010186 -273.4649167416193 L81.18995673355363 -254.93835537698735 L80.82665144959628 -256.19094428556576 z"/>
<path fill="#3c3c3c" stroke="#3c3c3c" d="M65.74872415085342 -288.84991864994987 L66.11202943481078 -287.5973297413715 L107.3341191701019 -273.4649167416192 L106.97081388614454 -274.71750565019767 z"/>
<path fill="#3c3c3c" stroke="#3c3c3c" d="M39.60456171430518 -270.32335728531797 L39.96786699826252 -269.0707683767395 L66.11202943481074 -287.5973297413714 L65.74872415085339 -288.84991864994987 z"/>
<path fill="#3c3c3c" stroke="#3c3c3c" d="M80.82665144959631 -256.19094428556576 L81.18995673355367 -254.93835537698735 L39.967866998262565 -269.07076837673947 L39.60456171430522 -270.3233572853179 z"/>
<path fill="#3c3c3c" stroke="#3c3c3c" d="M106.9708138861445 -274.71750565019767 L80.82665144959627 -256.19094428556576 L39.60456171430518 -270.3233572853179 L65.74872415085339 -288.84991864994987 z"/>
<path fill="#3c3c3c" stroke="#3c3c3c" d="M107.33411917010184 -273.4649167416193 L66.11202943481074 -287.5973297413714 L39.96786699826252 -269.0707683767395 L81.18995673355361 -254.93835537698735 z"/>
<path fill="#bababa" stroke="#bababa" d="M94.01268354171633 -308.8786336387411 L94.37598882567369 -307.6260447301627 L68.23182638912546 -289.0994833655308 L67.86852110516811 -290.35207227410916 z"/>
<path fill="#bababa" stroke="#bababa" d="M109.09061084045922 -276.219659274357 L109.45391612441658 -274.9670703657786 L135.59807856096478 -293.49363173041047 L135.23477327700743 -294.7462206389889 z"/>
<path fill="#bababa" stroke="#bababa" d="M67.86852110516817 -290.3520722741092 L68.2318263891255 -289.0994833655308 L109.45391612441662 -274.96707036577857 L109.09061084045929 -276.21965927435696 z"/>
<path fill="#bababa" stroke="#bababa" d="M135.2347732770075 -294.7462206389889 L135.59807856096484 -293.4936317304105 L94.37598882567373 -307.62604473016273 L94.0126835417164 -308.8786336387411 z"/>
<path fill="#bababa" stroke="#bababa" d="M137.30198616836438 -293.65243638739435 L109.744625762273 -274.1244392733229 L109.38132047831566 -275.37702818190127 L136.93868088440703 -294.9050252959728 z"/>
<path fill="#bababa" stroke="#bababa" d="M94.08527918781728 -308.4686758226184 L137.30198616836438 -293.6524363873944 L136.93868088440706 -294.9050252959728 L93.72197390385993 -309.7212647311968 z"/>
<path fill="#bababa" stroke="#bababa" d="M66.52791878172587 -288.94067870854695 L94.08527918781725 -308.4686758226184 L93.72197390385989 -309.7212647311968 L66.16461349776853 -290.19326761712534 z"/>
<path fill="#bababa" stroke="#bababa" d="M109.74462576227302 -274.1244392733229 L66.52791878172593 -288.94067870854695 L66.16461349776858 -290.19326761712534 L109.3813204783157 -275.3770281819013 z"/>
<path fill="#bababa" stroke="#bababa" d="M109.38132047831564 -275.3770281819013 L66.16461349776853 -290.19326761712534 L93.72197390385989 -309.7212647311968 L136.938680884407 -294.9050252959728 z M135.23477327700743 -294.746220638989 L94.01268354171634 -308.8786336387411 L67.86852110516811 -290.3520722741092 L109.09061084045922 -276.219659274357 z"/>
<path fill="#bababa" stroke="#bababa" d="M94.08527918781724 -308.4686758226184 L66.52791878172587 -288.94067870854695 L109.744625762273 -274.1244392733229 L137.30198616836435 -293.65243638739435 z M94.48680089485458 -307.58805437263646 L135.59807856096478 -293.4936317304105 L109.45391612441657 -274.96707036577857 L68.23182638912546 -289.0994833655308 L94.37598882567369 -307.6260447301627 z"/>
<path fill="#3c3c3c" stroke="#3c3c3c" d="M135.23477327700743 -294.7462206389889 L135.59807856096478 -293.49363173041047 L109.45391612441658 -274.9670703657786 L109.09061084045922 -276.219659274357 z"/>
<path fill="#3c3c3c" stroke="#3c3c3c" d="M94.01268354171636 -308.8786336387411 L94.37598882567373 -307.6260447301627 L135.5980785609648 -293.4936317304105 L135.23477327700746 -294.746220638989 z"/>
<path fill="#3c3c3c" stroke="#3c3c3c" d="M67.86852110516811 -290.35207227410916 L68.23182638912546 -289.0994833655308 L94.37598882567369 -307.6260447301627 L94.01268354171633 -308.8786336387411 z"/>
<path fill="#3c3c3c" stroke="#3c3c3c" d="M109.09061084045928 -276.219659274357 L109.45391612441662 -274.96707036577857 L68.23182638912552 -289.09948336553083 L67.86852110516816 -290.3520722741092 z"/>
<path fill="#3c3c3c" stroke="#3c3c3c" d="M135.23477327700743 -294.7462206389889 L109.09061084045922 -276.219659274357 L67.86852110516811 -290.3520722741092 L94.01268354171633 -308.8786336387411 z"/>
<path fill="#3c3c3c" stroke="#3c3c3c" d="M135.59807856096478 -293.4936317304105 L94.37598882567367 -307.6260447301627 L68.23182638912546 -289.0994833655308 L109.45391612441657 -274.9670703657786 z"/>
<path fill="#bababa" stroke="#bababa" d="M122.27664293257928 -328.9073486275324 L122.63994821653662 -327.6547597189539 L96.49578577998841 -309.1281983543221 L96.13248049603105 -310.38078726290047 z"/>
<path fill="#bababa" stroke="#bababa" d="M137.35457023132216 -296.24837426314826 L137.7178755152795 -294.9957853545699 L163.86203795182772 -313.5223467192018 L163.49873266787037 -314.77493562778017 z"/>
<path fill="#bababa" stroke="#bababa" d="M96.13248049603108 -310.38078726290047 L96.49578577998844 -309.1281983543221 L137.7178755152796 -294.9957853545699 L137.3545702313222 -296.24837426314826 z"/>
<path fill="#bababa" stroke="#bababa" d="M163.4987326678704 -314.7749356277802 L163.8620379518278 -313.5223467192018 L122.6399482165367 -327.6547597189539 L122.27664293257934 -328.90734862753243 z"/>
<path fill="#bababa" stroke="#bababa" d="M165.56594555922732 -313.6811513761856 L138.00858515313595 -294.1531542621141 L137.64527986917858 -295.4057431706925 L165.20264027526997 -314.93374028476404 z"/>
<path fill="#bababa" stroke="#bababa" d="M122.34923857868021 -328.4973908114097 L165.56594555922737 -313.6811513761856 L165.20264027527 -314.93374028476404 L121.98593329472291 -329.7499797199881 z"/>
<path fill="#bababa" stroke="#bababa" d="M94.79187817258881 -308.9693936973382 L122.34923857868019 -328.4973908114097 L121.98593329472284 -329.7499797199881 L94.42857288863146 -310.2219826059166 z"/>
<path fill="#bababa" stroke="#bababa" d="M138.008585153136 -294.1531542621141 L94.79187817258885 -308.9693936973382 L94.42857288863152 -310.2219826059166 L137.64527986917864 -295.4057431706926 z"/>
<path fill="#bababa" stroke="#bababa" d="M137.64527986917858 -295.4057431706925 L94.42857288863146 -310.2219826059166 L121.98593329472284 -329.74997971998806 L165.20264027526994 -314.93374028476404 z M163.49873266787037 -314.7749356277802 L122.27664293257928 -328.9073486275324 L96.13248049603106 -310.38078726290047 L137.35457023132216 -296.24837426314826 z"/>
<path fill="#bababa" stroke="#bababa" d="M122.34923857868019 -328.4973908114097 L94.79187817258881 -308.9693936973382 L138.00858515313595 -294.1531542621141 L165.56594555922732 -313.6811513761856 z M122.75076028571752 -327.6167693614277 L163.86203795182772 -313.5223467192018 L137.7178755152795 -294.9957853545699 L96.4957857799884 -309.128198354322 L122.63994821653662 -327.654759718954 z"/>
<path fill="#3c3c3c" stroke="#3c3c3c" d="M163.49873266787037 -314.77493562778017 L163.86203795182772 -313.5223467192018 L137.7178755152795 -294.9957853545699 L137.35457023132216 -296.24837426314826 z"/>
<path fill="#3c3c3c" stroke="#3c3c3c" d="M122.27664293257935 -328.9073486275324 L122.63994821653668 -327.6547597189539 L163.86203795182777 -313.5223467192018 L163.49873266787043 -314.77493562778017 z"/>
<path fill="#3c3c3c" stroke="#3c3c3c" d="M96.13248049603105 -310.38078726290047 L96.49578577998841 -309.1281983543221 L122.63994821653662 -327.6547597189539 L122.27664293257928 -328.9073486275324 z"/>
<path fill="#3c3c3c" stroke="#3c3c3c" d="M137.3545702313222 -296.2483742631483 L137.71787551527953 -294.9957853545699 L96.49578577998847 -309.128198354322 L96.13248049603109 -310.38078726290047 z"/>
<path fill="#3c3c3c" stroke="#3c3c3c" d="M163.49873266787037 -314.7749356277802 L137.35457023132216 -296.24837426314826 L96.13248049603105 -310.38078726290047 L122.27664293257928 -328.9073486275324 z"/>
<path fill="#3c3c3c" stroke="#3c3c3c" d="M163.86203795182772 -313.5223467192018 L122.63994821653662 -327.654759718954 L96.4957857799884 -309.128198354322 L137.7178755152795 -294.9957853545698 z"/>
<path fill="#bababa" stroke="#bababa" d="M37.484764759990455 -346.65876711293527 L37.8480700439478 -345.4061782043568 L11.703907607399584 -326.8796168397249 L11.340602323442232 -328.1322057483033 z"/>
<path fill="#bababa" stroke="#bababa" d="M52.56269205873334 -313.99979274855116 L52.92599734269069 -312.74720383997277 L79.0701597792389 -331.2737652046046 L78.70685449528156 -332.52635411318306 z"/>
<path fill="#bababa" stroke="#bababa" d="M11.340602323442274 -328.1322057483033 L11.703907607399636 -326.8796168397249 L52.92599734269073 -312.74720383997277 L52.56269205873336 -313.99979274855116 z"/>
<path fill="#bababa" stroke="#bababa" d="M78.70685449528162 -332.52635411318306 L79.07015977923898 -331.2737652046046 L37.84807004394786 -345.4061782043568 L37.48476475999049 -346.6587671129353 z"/>
<path fill="#bababa" stroke="#bababa" d="M80.77406738663849 -331.4325698615885 L53.21670698054712 -311.90457274751697 L52.85340169658978 -313.1571616560954 L80.41076210268115 -332.6851587701669 z"/>
<path fill="#bababa" stroke="#bababa" d="M37.557360406091405 -346.2488092968125 L80.77406738663852 -331.4325698615885 L80.4107621026812 -332.6851587701669 L37.19405512213407 -347.501398205391 z"/>
<path fill="#bababa" stroke="#bababa" d="M9.999999999999996 -326.72081218274104 L37.55736040609137 -346.24880929681257 L37.19405512213402 -347.50139820539096 L9.636694716042648 -327.9734010913195 z"/>
<path fill="#bababa" stroke="#bababa" d="M53.21670698054717 -311.904572747517 L10.000000000000076 -326.72081218274104 L9.636694716042692 -327.97340109131954 L52.85340169658983 -313.1571616560954 z"/>
<path fill="#bababa" stroke="#bababa" d="M52.853401696589785 -313.1571616560954 L9.636694716042653 -327.9734010913195 L37.19405512213402 -347.50139820539096 L80.41076210268115 -332.6851587701669 z M78.70685449528156 -332.52635411318306 L37.484764759990455 -346.6587671129352 L11.340602323442237 -328.1322057483033 L52.56269205873334 -313.99979274855116 z"/>
<path fill="#bababa" stroke="#bababa" d="M37.55736040609137 -346.2488092968125 L9.999999999999998 -326.7208121827411 L53.21670698054712 -311.904572747517 L80.77406738663849 -331.4325698615885 z M37.95888211312869 -345.3681878468306 L79.07015977923889 -331.2737652046047 L52.92599734269069 -312.7472038399727 L11.703907607399582 -326.8796168397249 L37.8480700439478 -345.4061782043568 z"/>
<path fill="#3c3c3c" stroke="#3c3c3c" d="M78.70685449528156 -332.52635411318306 L79.0701597792389 -331.2737652046046 L52.92599734269069 -312.74720383997277 L52.56269205873334 -313.99979274855116 z"/>
<path fill="#3c3c3c" stroke="#3c3c3c" d="M37.484764759990476 -346.65876711293527 L37.84807004394784 -345.4061782043569 L79.07015977923899 -331.2737652046046 L78.70685449528162 -332.52635411318306 z"/>
<path fill="#3c3c3c" stroke="#3c3c3c" d="M11.340602323442232 -328.1322057483033 L11.703907607399584 -326.8796168397249 L37.8480700439478 -345.4061782043568 L37.484764759990455 -346.65876711293527 z"/>
<path fill="#3c3c3c" stroke="#3c3c3c" d="M52.56269205873337 -313.99979274855116 L52.925997342690735 -312.7472038399727 L11.703907607399628 -326.87961683972486 L11.340602323442305 -328.1322057483033 z"/>
<path fill="#3c3c3c" stroke="#3c3c3c" d="M78.70685449528156 -332.52635411318306 L52.56269205873334 -313.99979274855116 L11.340602323442235 -328.13220574830336 L37.484764759990455 -346.65876711293527 z"/>
<path fill="#3c3c3c" stroke="#3c3c3c" d="M79.0701597792389 -331.2737652046046 L37.8480700439478 -345.4061782043568 L11.703907607399582 -326.8796168397249 L52.925997342690685 -312.7472038399727 z"/>
<path fill="#bababa" stroke="#bababa" d="M65.74872415085339 -366.68748210172646 L66.11202943481074 -365.43489319314807 L39.96786699826252 -346.90833182851617 L39.60456171430518 -348.1609207370946 z"/>
<path fill="#bababa" stroke="#bababa" d="M80.82665144959628 -334.0285077373424 L81.18995673355363 -332.77591882876396 L107.33411917010186 -351.3024801933959 L106.9708138861445 -352.5550691019743 z"/>
<path fill="#bababa" stroke="#bababa" d="M39.60456171430521 -348.1609207370946 L39.96786699826257 -346.9083318285162 L81.18995673355369 -332.77591882876396 L80.82665144959635 -334.0285077373424 z"/>
<path fill="#bababa" stroke="#bababa" d="M106.97081388614454 -352.5550691019743 L107.3341191701019 -351.3024801933959 L66.11202943481078 -365.4348931931481 L65.74872415085345 -366.6874821017265 z"/>
<path fill="#bababa" stroke="#bababa" d="M109.03802677750143 -351.46128485037974 L81.48066637141007 -331.9332877363083 L81.11736108745272 -333.1858766448867 L108.67472149354408 -352.71387375895813 z"/>
<path fill="#bababa" stroke="#bababa" d="M65.82131979695438 -366.2775242856038 L109.03802677750147 -351.46128485037974 L108.67472149354413 -352.7138737589582 L65.45801451299704 -367.5301131941822 z"/>
<path fill="#bababa" stroke="#bababa" d="M38.263959390862944 -346.74952717153235 L65.8213197969543 -366.2775242856038 L65.45801451299695 -367.5301131941822 L37.9006541069056 -348.0021160801108 z"/>
<path fill="#bababa" stroke="#bababa" d="M81.4806663714101 -331.9332877363083 L38.26395939086301 -346.74952717153235 L37.90065410690566 -348.00211608011074 L81.11736108745275 -333.18587664488666 z"/>
<path fill="#bababa" stroke="#bababa" d="M81.11736108745271 -333.18587664488666 L37.90065410690559 -348.0021160801108 L65.45801451299695 -367.5301131941822 L108.67472149354407 -352.71387375895813 z M106.9708138861445 -352.5550691019743 L65.74872415085339 -366.68748210172646 L39.60456171430518 -348.16092073709456 L80.82665144959628 -334.0285077373424 z"/>
<path fill="#bababa" stroke="#bababa" d="M65.8213197969543 -366.27752428560376 L38.26395939086294 -346.74952717153235 L81.48066637141005 -331.9332877363083 L109.03802677750143 -351.46128485037974 z M66.22284150399163 -365.39690283562186 L107.33411917010184 -351.3024801933959 L81.18995673355361 -332.77591882876396 L39.96786699826252 -346.90833182851617 L66.11202943481074 -365.43489319314807 z"/>
<path fill="#3c3c3c" stroke="#3c3c3c" d="M106.9708138861445 -352.5550691019743 L107.33411917010186 -351.3024801933959 L81.18995673355363 -332.77591882876396 L80.82665144959628 -334.0285077373424 z"/>
<path fill="#3c3c3c" stroke="#3c3c3c" d="M65.74872415085346 -366.68748210172646 L66.11202943481082 -365.434893193148 L107.3341191701019 -351.3024801933959 L106.97081388614453 -352.55506910197437 z"/>
<path fill="#3c3c3c" stroke="#3c3c3c" d="M39.60456171430518 -348.1609207370946 L39.96786699826252 -346.90833182851617 L66.11202943481074 -365.43489319314807 L65.74872415085339 -366.68748210172646 z"/>
<path fill="#3c3c3c" stroke="#3c3c3c" d="M80.82665144959635 -334.0285077373424 L81.18995673355369 -332.77591882876396 L39.96786699826258 -346.90833182851617 L39.60456171430521 -348.1609207370946 z"/>
<path fill="#3c3c3c" stroke="#3c3c3c" d="M106.9708138861445 -352.5550691019743 L80.82665144959627 -334.0285077373424 L39.60456171430518 -348.1609207370946 L65.74872415085339 -366.68748210172646 z"/>
<path fill="#3c3c3c" stroke="#3c3c3c" d="M107.33411917010184 -351.3024801933959 L66.11202943481074 -365.43489319314807 L39.96786699826252 -346.90833182851617 L81.18995673355361 -332.77591882876396 z"/>
<path fill="#bababa" stroke="#bababa" d="M94.01268354171634 -386.71619709051777 L94.37598882567367 -385.4636081819393 L68.23182638912546 -366.93704681730736 L67.86852110516811 -368.18963572588586 z"/>
<path fill="#bababa" stroke="#bababa" d="M109.09061084045922 -354.05722272613366 L109.45391612441657 -352.8046338175552 L135.59807856096478 -371.3311951821871 L135.23477327700743 -372.58378409076556 z"/>
<path fill="#bababa" stroke="#bababa" d="M67.86852110516821 -368.1896357258858 L68.23182638912553 -366.93704681730736 L109.45391612441662 -352.80463381755527 L109.09061084045926 -354.05722272613366 z"/>
<path fill="#bababa" stroke="#bababa" d="M135.2347732770075 -372.58378409076556 L135.59807856096486 -371.3311951821872 L94.37598882567374 -385.4636081819393 L94.01268354171641 -386.71619709051777 z"/>
<path fill="#bababa" stroke="#bababa" d="M137.30198616836438 -371.489999839171 L109.744625762273 -351.9620027250995 L109.38132047831566 -353.2145916336779 L136.93868088440703 -372.74258874774944 z"/>
<path fill="#bababa" stroke="#bababa" d="M94.0852791878173 -386.30623927439507 L137.3019861683644 -371.48999983917105 L136.93868088440706 -372.74258874774944 L93.72197390385996 -387.5588281829735 z"/>
<path fill="#bababa" stroke="#bababa" d="M66.52791878172587 -366.7782421603236 L94.08527918781725 -386.30623927439507 L93.7219739038599 -387.5588281829735 L66.16461349776853 -368.030831068902 z"/>
<path fill="#bababa" stroke="#bababa" d="M109.74462576227303 -351.9620027250995 L66.52791878172593 -366.7782421603236 L66.16461349776858 -368.030831068902 L109.38132047831569 -353.21459163367797 z"/>
<path fill="#bababa" stroke="#bababa" d="M109.38132047831564 -353.21459163367797 L66.16461349776853 -368.03083106890205 L93.72197390385989 -387.55882818297346 L136.938680884407 -372.7425887477494 z M135.23477327700743 -372.58378409076556 L94.01268354171634 -386.71619709051777 L67.86852110516811 -368.18963572588586 L109.09061084045922 -354.05722272613366 z"/>
<path fill="#bababa" stroke="#bababa" d="M94.08527918781724 -386.30623927439507 L66.52791878172587 -366.7782421603236 L109.744625762273 -351.9620027250995 L137.30198616836435 -371.489999839171 z M94.48680089485458 -385.4256178244131 L135.59807856096478 -371.3311951821872 L109.45391612441657 -352.80463381755527 L68.23182638912546 -366.9370468173074 L94.37598882567369 -385.4636081819394 z"/>
<path fill="#3c3c3c" stroke="#3c3c3c" d="M135.23477327700743 -372.58378409076556 L135.59807856096478 -371.3311951821871 L109.45391612441657 -352.8046338175552 L109.09061084045922 -354.05722272613366 z"/>
<path fill="#3c3c3c" stroke="#3c3c3c" d="M94.01268354171641 -386.71619709051777 L94.37598882567373 -385.4636081819393 L135.59807856096484 -371.3311951821872 L135.23477327700746 -372.58378409076556 z"/>
<path fill="#3c3c3c" stroke="#3c3c3c" d="M67.86852110516811 -368.18963572588586 L68.23182638912546 -366.93704681730736 L94.37598882567367 -385.4636081819393 L94.01268354171634 -386.71619709051777 z"/>
<path fill="#3c3c3c" stroke="#3c3c3c" d="M109.09061084045926 -354.05722272613366 L109.45391612441664 -352.80463381755527 L68.23182638912553 -366.9370468173074 L67.86852110516816 -368.18963572588586 z"/>
<path fill="#3c3c3c" stroke="#3c3c3c" d="M135.23477327700743 -372.5837840907656 L109.09061084045922 -354.05722272613366 L67.86852110516811 -368.1896357258858 L94.01268354171633 -386.71619709051777 z"/>
<path fill="#3c3c3c" stroke="#3c3c3c" d="M135.59807856096478 -371.3311951821872 L94.37598882567367 -385.4636081819393 L68.23182638912546 -366.9370468173074 L109.45391612441657 -352.80463381755527 z"/>
<path fill="#bababa" stroke="#bababa" d="M122.27664293257928 -406.744912079309 L122.63994821653664 -405.49232317073063 L96.49578577998841 -386.96576180609867 L96.13248049603105 -388.21835071467706 z"/>
<path fill="#bababa" stroke="#bababa" d="M137.35457023132216 -374.08593771492485 L137.7178755152795 -372.83334880634646 L163.86203795182772 -391.3599101709784 L163.49873266787037 -392.6124990795568 z"/>
<path fill="#bababa" stroke="#bababa" d="M96.1324804960311 -388.2183507146771 L96.49578577998847 -386.96576180609867 L137.71787551527956 -372.8333488063465 L137.35457023132219 -374.08593771492497 z"/>
<path fill="#bababa" stroke="#bababa" d="M163.49873266787046 -392.6124990795568 L163.86203795182783 -391.3599101709784 L122.63994821653671 -405.4923231707306 L122.27664293257938 -406.744912079309 z"/>
<path fill="#bababa" stroke="#bababa" d="M165.56594555922732 -391.51871482796224 L138.00858515313595 -371.9907177138908 L137.6452798691786 -373.2433066224692 L165.20264027526997 -392.7713037365407 z"/>
<path fill="#bababa" stroke="#bababa" d="M122.34923857868029 -406.33495426318626 L165.56594555922737 -391.51871482796224 L165.20264027527003 -392.77130373654063 L121.98593329472294 -407.5875431717647 z"/>
<path fill="#bababa" stroke="#bababa" d="M94.79187817258881 -386.80695714911485 L122.34923857868019 -406.33495426318626 L121.98593329472283 -407.5875431717647 L94.42857288863146 -388.05954605769324 z"/>
<path fill="#bababa" stroke="#bababa" d="M138.00858515313598 -371.9907177138908 L94.79187817258887 -386.80695714911485 L94.42857288863152 -388.05954605769324 L137.64527986917867 -373.2433066224692 z"/>
<path fill="#bababa" stroke="#bababa" d="M137.64527986917858 -373.2433066224692 L94.42857288863146 -388.0595460576933 L121.98593329472284 -407.58754317176476 L165.20264027526994 -392.77130373654063 z M163.49873266787037 -392.6124990795568 L122.27664293257928 -406.744912079309 L96.13248049603106 -388.2183507146771 L137.35457023132216 -374.08593771492497 z"/>
<path fill="#bababa" stroke="#bababa" d="M122.34923857868019 -406.3349542631863 L94.79187817258881 -386.80695714911485 L138.00858515313595 -371.9907177138908 L165.56594555922732 -391.51871482796224 z M122.75076028571752 -405.45433281320436 L163.86203795182772 -391.3599101709784 L137.7178755152795 -372.8333488063465 L96.4957857799884 -386.96576180609867 L122.63994821653662 -405.49232317073063 z"/>
<path fill="#3c3c3c" stroke="#3c3c3c" d="M163.49873266787037 -392.6124990795568 L163.86203795182772 -391.3599101709784 L137.7178755152795 -372.83334880634646 L137.35457023132216 -374.08593771492485 z"/>
<path fill="#3c3c3c" stroke="#3c3c3c" d="M122.27664293257932 -406.7449120793091 L122.6399482165367 -405.49232317073063 L163.86203795182774 -391.3599101709784 L163.4987326678705 -392.61249907955676 z"/>
<path fill="#3c3c3c" stroke="#3c3c3c" d="M96.13248049603105 -388.21835071467706 L96.49578577998841 -386.96576180609867 L122.63994821653664 -405.49232317073063 L122.27664293257928 -406.744912079309 z"/>
<path fill="#3c3c3c" stroke="#3c3c3c" d="M137.35457023132224 -374.08593771492485 L137.71787551527962 -372.8333488063464 L96.49578577998844 -386.9657618060987 L96.1324804960311 -388.2183507146772 z"/>
<path fill="#3c3c3c" stroke="#3c3c3c" d="M163.49873266787037 -392.6124990795568 L137.35457023132216 -374.0859377149249 L96.13248049603105 -388.2183507146771 L122.27664293257928 -406.744912079309 z"/>
<path fill="#3c3c3c" stroke="#3c3c3c" d="M163.86203795182772 -391.35991017097837 L122.63994821653662 -405.49232317073063 L96.4957857799884 -386.96576180609867 L137.7178755152795 -372.8333488063465 z"/>
<path fill="#bababa" stroke="#bababa" d="M37.484764759990455 -190.98364020938197 L37.8480700439478 -189.73105130080356 L11.703907607399582 -171.20448993617163 L11.340602323442239 -172.45707884475007 z"/>
<path fill="#bababa" stroke="#bababa" d="M52.56269205873334 -158.32466584499787 L52.925997342690685 -157.07207693641945 L79.0701597792389 -175.59863830105138 L78.70685449528155 -176.85122720962977 z"/>
<path fill="#bababa" stroke="#bababa" d="M11.34060232344227 -172.45707884475004 L11.703907607399612 -171.20448993617163 L52.92599734269073 -157.07207693641945 L52.56269205873339 -158.32466584499787 z"/>
<path fill="#bababa" stroke="#bababa" d="M78.70685449528159 -176.8512272096298 L79.07015977923894 -175.59863830105138 L37.84807004394783 -189.73105130080356 L37.48476475999048 -190.98364020938197 z"/>
<path fill="#bababa" stroke="#bababa" d="M80.77406738663849 -175.75744295803523 L53.21670698054712 -156.22944584396373 L52.85340169658978 -157.48203475254215 L80.41076210268115 -177.01003186661364 z"/>
<path fill="#bababa" stroke="#bababa" d="M37.55736040609141 -190.57368239325925 L80.77406738663854 -175.7574429580352 L80.41076210268116 -177.01003186661364 L37.19405512213403 -191.82627130183772 z"/>
<path fill="#bababa" stroke="#bababa" d="M9.999999999999998 -171.0456852791878 L37.55736040609136 -190.57368239325928 L37.19405512213402 -191.8262713018377 L9.636694716042653 -172.29827418776622 z"/>
<path fill="#bababa" stroke="#bababa" d="M53.21670698054716 -156.22944584396373 L10.000000000000016 -171.04568527918778 L9.636694716042678 -172.29827418776625 L52.85340169658979 -157.48203475254215 z"/>
<path fill="#bababa" stroke="#bababa" d="M52.853401696589785 -157.48203475254215 L9.636694716042653 -172.2982741877662 L37.19405512213402 -191.8262713018377 L80.41076210268115 -177.01003186661364 z M78.70685449528156 -176.8512272096298 L37.484764759990455 -190.98364020938197 L11.340602323442237 -172.45707884475004 L52.56269205873334 -158.32466584499787 z"/>
<path fill="#bababa" stroke="#bababa" d="M37.55736040609137 -190.57368239325925 L9.999999999999998 -171.04568527918778 L53.21670698054712 -156.2294458439637 L80.77406738663849 -175.7574429580352 z M37.95888211312869 -189.69306094327735 L79.07015977923889 -175.59863830105138 L52.92599734269069 -157.07207693641945 L11.703907607399582 -171.20448993617163 L37.8480700439478 -189.73105130080356 z"/>
<path fill="#3c3c3c" stroke="#3c3c3c" d="M78.70685449528155 -176.85122720962977 L79.0701597792389 -175.59863830105138 L52.925997342690685 -157.07207693641945 L52.56269205873334 -158.32466584499787 z"/>
<path fill="#3c3c3c" stroke="#3c3c3c" d="M37.484764759990476 -190.98364020938197 L37.84807004394782 -189.73105130080356 L79.07015977923896 -175.59863830105132 L78.7068544952816 -176.85122720962977 z"/>
<path fill="#3c3c3c" stroke="#3c3c3c" d="M11.340602323442239 -172.45707884475007 L11.703907607399582 -171.20448993617163 L37.8480700439478 -189.73105130080356 L37.484764759990455 -190.98364020938197 z"/>
<path fill="#3c3c3c" stroke="#3c3c3c" d="M52.562692058733354 -158.32466584499787 L52.925997342690714 -157.07207693641945 L11.703907607399591 -171.20448993617165 L11.340602323442287 -172.45707884475001 z"/>
<path fill="#3c3c3c" stroke="#3c3c3c" d="M78.70685449528156 -176.85122720962977 L52.56269205873334 -158.32466584499787 L11.340602323442235 -172.45707884475004 L37.484764759990455 -190.98364020938197 z"/>
<path fill="#3c3c3c" stroke="#3c3c3c" d="M79.0701597792389 -175.59863830105135 L37.8480700439478 -189.73105130080356 L11.703907607399582 -171.20448993617163 L52.925997342690685 -157.07207693641945 z"/>
<path fill="#bababa" stroke="#bababa" d="M65.74872415085339 -211.01235519817325 L66.11202943481074 -209.7597662895948 L39.96786699826252 -191.23320492496288 L39.60456171430518 -192.48579383354132 z"/>
<path fill="#bababa" stroke="#bababa" d="M80.82665144959628 -178.35338083378915 L81.18995673355363 -177.1007919252107 L107.33411917010186 -195.6273532898426 L106.9708138861445 -196.87994219842105 z"/>
<path fill="#bababa" stroke="#bababa" d="M39.60456171430519 -192.48579383354132 L39.96786699826253 -191.2332049249629 L81.18995673355364 -177.10079192521073 L80.82665144959631 -178.35338083378915 z"/>
<path fill="#bababa" stroke="#bababa" d="M106.97081388614455 -196.87994219842102 L107.3341191701019 -195.6273532898426 L66.1120294348108 -209.7597662895948 L65.74872415085345 -211.0123551981732 z"/>
<path fill="#bababa" stroke="#bababa" d="M109.03802677750143 -195.78615794682645 L81.48066637141007 -176.25816083275498 L81.11736108745272 -177.5107497413334 L108.67472149354408 -197.0387468554049 z"/>
<path fill="#bababa" stroke="#bababa" d="M65.82131979695434 -210.60239738205053 L109.03802677750146 -195.78615794682648 L108.67472149354411 -197.03874685540487 L65.458014512997 -211.85498629062891 z"/>
<path fill="#bababa" stroke="#bababa" d="M38.26395939086294 -191.07440026797906 L65.8213197969543 -210.60239738205053 L65.45801451299695 -211.85498629062894 L37.90065410690559 -192.32698917655748 z"/>
<path fill="#bababa" stroke="#bababa" d="M81.48066637141008 -176.25816083275498 L38.263959390862965 -191.07440026797903 L37.90065410690565 -192.32698917655745 L81.11736108745275 -177.51074974133343 z"/>
<path fill="#bababa" stroke="#bababa" d="M81.11736108745271 -177.5107497413334 L37.90065410690559 -192.32698917655748 L65.45801451299695 -211.85498629062894 L108.67472149354407 -197.0387468554049 z M106.9708138861445 -196.87994219842105 L65.74872415085339 -211.01235519817322 L39.60456171430518 -192.4857938335413 L80.82665144959628 -178.35338083378912 z"/>
<path fill="#bababa" stroke="#bababa" d="M65.8213197969543 -210.60239738205053 L38.26395939086294 -191.07440026797903 L81.48066637141005 -176.25816083275498 L109.03802677750143 -195.78615794682648 z M66.22284150399163 -209.7217759320686 L107.33411917010184 -195.62735328984263 L81.18995673355361 -177.1007919252107 L39.96786699826252 -191.23320492496288 L66.11202943481074 -209.7597662895948 z"/>
<path fill="#3c3c3c" stroke="#3c3c3c" d="M106.9708138861445 -196.87994219842105 L107.33411917010186 -195.6273532898426 L81.18995673355363 -177.1007919252107 L80.82665144959628 -178.35338083378915 z"/>
<path fill="#3c3c3c" stroke="#3c3c3c" d="M65.74872415085342 -211.01235519817322 L66.1120294348108 -209.75976628959478 L107.33411917010187 -195.62735328984263 L106.97081388614453 -196.87994219842105 z"/>
<path fill="#3c3c3c" stroke="#3c3c3c" d="M39.60456171430518 -192.48579383354132 L39.96786699826252 -191.23320492496288 L66.11202943481074 -209.7597662895948 L65.74872415085339 -211.01235519817325 z"/>
<path fill="#3c3c3c" stroke="#3c3c3c" d="M80.8266514495963 -178.35338083378915 L81.18995673355364 -177.10079192521073 L39.96786699826256 -191.23320492496288 L39.60456171430521 -192.48579383354132 z"/>
<path fill="#3c3c3c" stroke="#3c3c3c" d="M106.9708138861445 -196.87994219842105 L80.82665144959627 -178.35338083378912 L39.60456171430518 -192.48579383354132 L65.74872415085339 -211.01235519817322 z"/>
<path fill="#3c3c3c" stroke="#3c3c3c" d="M107.33411917010184 -195.6273532898426 L66.11202943481074 -209.7597662895948 L39.96786699826252 -191.2332049249629 L81.18995673355361 -177.1007919252107 z"/>
<path fill="#bababa" stroke="#bababa" d="M94.01268354171633 -231.0410701869645 L94.37598882567369 -229.7884812783861 L68.23182638912546 -211.26191991375416 L67.86852110516811 -212.51450882233257 z"/>
<path fill="#bababa" stroke="#bababa" d="M109.09061084045922 -198.38209582258037 L109.45391612441657 -197.12950691400195 L135.59807856096478 -215.65606827863388 L135.23477327700743 -216.9086571872123 z"/>
<path fill="#bababa" stroke="#bababa" d="M67.86852110516816 -212.51450882233257 L68.2318263891255 -211.26191991375416 L109.4539161244166 -197.12950691400198 L109.09061084045925 -198.3820958225804 z"/>
<path fill="#bababa" stroke="#bababa" d="M135.23477327700746 -216.90865718721233 L135.5980785609648 -215.6560682786339 L94.37598882567372 -229.7884812783861 L94.01268354171637 -231.0410701869645 z"/>
<path fill="#bababa" stroke="#bababa" d="M137.30198616836435 -215.8148729356177 L109.74462576227302 -196.28687582154623 L109.38132047831566 -197.53946473012468 L136.938680884407 -217.06746184419612 z"/>
<path fill="#bababa" stroke="#bababa" d="M94.08527918781726 -230.63111237084178 L137.30198616836444 -215.81487293561767 L136.93868088440706 -217.06746184419615 L93.72197390385995 -231.8837012794202 z"/>
<path fill="#bababa" stroke="#bababa" d="M66.52791878172589 -211.1031152567703 L94.08527918781724 -230.63111237084178 L93.72197390385989 -231.8837012794202 L66.16461349776853 -212.35570416534875 z"/>
<path fill="#bababa" stroke="#bababa" d="M109.74462576227303 -196.28687582154626 L66.52791878172592 -211.1031152567703 L66.16461349776857 -212.3557041653487 L109.3813204783157 -197.53946473012468 z"/>
<path fill="#bababa" stroke="#bababa" d="M109.38132047831564 -197.53946473012465 L66.16461349776853 -212.35570416534873 L93.72197390385989 -231.88370127942022 L136.938680884407 -217.06746184419615 z M135.23477327700743 -216.9086571872123 L94.01268354171634 -231.04107018696448 L67.86852110516811 -212.51450882233257 L109.09061084045922 -198.3820958225804 z"/>
<path fill="#bababa" stroke="#bababa" d="M94.08527918781724 -230.6311123708418 L66.52791878172587 -211.1031152567703 L109.744625762273 -196.28687582154623 L137.30198616836435 -215.81487293561773 z M94.48680089485458 -229.75049092085985 L135.59807856096478 -215.65606827863388 L109.45391612441657 -197.12950691400195 L68.23182638912546 -211.26191991375416 L94.37598882567369 -229.78848127838606 z"/>
<path fill="#3c3c3c" stroke="#3c3c3c" d="M135.23477327700743 -216.9086571872123 L135.59807856096478 -215.65606827863388 L109.45391612441657 -197.12950691400195 L109.09061084045922 -198.38209582258037 z"/>
<path fill="#3c3c3c" stroke="#3c3c3c" d="M94.01268354171636 -231.0410701869645 L94.3759888256737 -229.7884812783861 L135.59807856096484 -215.65606827863385 L135.23477327700746 -216.9086571872123 z"/>
<path fill="#3c3c3c" stroke="#3c3c3c" d="M67.86852110516811 -212.51450882233257 L68.23182638912546 -211.26191991375416 L94.37598882567369 -229.7884812783861 L94.01268354171633 -231.0410701869645 z"/>
<path fill="#3c3c3c" stroke="#3c3c3c" d="M109.09061084045926 -198.3820958225804 L109.45391612441661 -197.12950691400195 L68.2318263891255 -211.2619199137541 L67.86852110516816 -212.51450882233254 z"/>
<path fill="#3c3c3c" stroke="#3c3c3c" d="M135.23477327700743 -216.9086571872123 L109.09061084045922 -198.3820958225804 L67.86852110516811 -212.51450882233257 L94.01268354171633 -231.04107018696448 z"/>
<path fill="#3c3c3c" stroke="#3c3c3c" d="M135.59807856096478 -215.65606827863388 L94.37598882567367 -229.78848127838606 L68.23182638912546 -211.26191991375416 L109.45391612441657 -197.12950691400195 z"/>
<path fill="#bababa" stroke="#bababa" d="M122.27664293257926 -251.06978517575573 L122.63994821653662 -249.81719626717734 L96.49578577998841 -231.2906349025454 L96.13248049603105 -232.54322381112382 z"/>
<path fill="#bababa" stroke="#bababa" d="M137.35457023132216 -218.41081081137165 L137.7178755152795 -217.1582219027932 L163.86203795182772 -235.68478326742513 L163.49873266787037 -236.93737217600358 z"/>
<path fill="#bababa" stroke="#bababa" d="M96.1324804960311 -232.54322381112382 L96.49578577998844 -231.2906349025454 L137.71787551527953 -217.1582219027932 L137.35457023132219 -218.41081081137162 z"/>
<path fill="#bababa" stroke="#bababa" d="M163.49873266787043 -236.93737217600355 L163.86203795182777 -235.68478326742513 L122.63994821653668 -249.8171962671773 L122.27664293257934 -251.06978517575573 z"/>
<path fill="#bababa" stroke="#bababa" d="M165.56594555922732 -235.84358792440898 L138.00858515313595 -216.31559081033748 L137.64527986917858 -217.5681797189159 L165.20264027526994 -237.0961768329874 z"/>
<path fill="#bababa" stroke="#bababa" d="M122.34923857868023 -250.65982735963306 L165.56594555922737 -235.84358792440895 L165.20264027527 -237.09617683298742 L121.98593329472288 -251.91241626821147 z"/>
<path fill="#bababa" stroke="#bababa" d="M94.79187817258882 -231.13183024556156 L122.3492385786802 -250.65982735963306 L121.98593329472284 -251.91241626821147 L94.42857288863148 -232.38441915413998 z"/>
<path fill="#bababa" stroke="#bababa" d="M138.008585153136 -216.31559081033748 L94.79187817258885 -231.1318302455616 L94.4285728886315 -232.38441915413998 L137.6452798691786 -217.56817971891593 z"/>
<path fill="#bababa" stroke="#bababa" d="M137.64527986917858 -217.56817971891593 L94.42857288863146 -232.38441915414 L121.98593329472284 -251.91241626821147 L165.20264027526994 -237.0961768329874 z M163.49873266787037 -236.93737217600355 L122.27664293257928 -251.06978517575575 L96.13248049603106 -232.54322381112385 L137.35457023132216 -218.41081081137165 z"/>
<path fill="#bababa" stroke="#bababa" d="M122.34923857868019 -250.65982735963306 L94.79187817258881 -231.13183024556156 L138.00858515313595 -216.3155908103375 L165.56594555922732 -235.84358792440898 z M122.75076028571752 -249.7792059096511 L163.86203795182772 -235.68478326742513 L137.7178755152795 -217.1582219027932 L96.4957857799884 -231.2906349025454 L122.63994821653662 -249.81719626717734 z"/>
<path fill="#3c3c3c" stroke="#3c3c3c" d="M163.49873266787037 -236.93737217600358 L163.86203795182772 -235.68478326742513 L137.7178755152795 -217.1582219027932 L137.35457023132216 -218.41081081137165 z"/>
<path fill="#3c3c3c" stroke="#3c3c3c" d="M122.2766429325793 -251.06978517575573 L122.63994821653667 -249.8171962671773 L163.86203795182774 -235.68478326742516 L163.4987326678704 -236.93737217600358 z"/>
<path fill="#3c3c3c" stroke="#3c3c3c" d="M96.13248049603105 -232.54322381112382 L96.49578577998841 -231.2906349025454 L122.63994821653662 -249.81719626717734 L122.27664293257926 -251.06978517575573 z"/>
<path fill="#3c3c3c" stroke="#3c3c3c" d="M137.3545702313222 -218.41081081137162 L137.71787551527956 -217.15822190279317 L96.49578577998844 -231.2906349025454 L96.13248049603109 -232.54322381112385 z"/>
<path fill="#3c3c3c" stroke="#3c3c3c" d="M163.49873266787037 -236.93737217600355 L137.35457023132216 -218.41081081137165 L96.13248049603105 -232.54322381112382 L122.27664293257928 -251.06978517575575 z"/>
<path fill="#3c3c3c" stroke="#3c3c3c" d="M163.86203795182772 -235.68478326742513 L122.63994821653662 -249.8171962671773 L96.4957857799884 -231.2906349025454 L137.7178755152795 -217.15822190279323 z"/>
<path fill="#bababa" stroke="#bababa" d="M37.484764759990455 -113.14607675760534 L37.8480700439478 -111.89348784902691 L11.703907607399584 -93.366926484395 L11.340602323442234 -94.61951539297341 z"/>
<path fill="#bababa" stroke="#bababa" d="M52.56269205873333 -80.48710239322124 L52.925997342690685 -79.23451348464282 L79.0701597792389 -97.7610748492747 L78.70685449528156 -99.01366375785314 z"/>
<path fill="#bababa" stroke="#bababa" d="M11.340602323442253 -94.61951539297343 L11.703907607399595 -93.36692648439501 L52.92599734269071 -79.23451348464282 L52.562692058733354 -80.48710239322124 z"/>
<path fill="#bababa" stroke="#bababa" d="M78.70685449528158 -99.01366375785317 L79.07015977923892 -97.76107484927472 L37.848070043947835 -111.89348784902691 L37.484764759990476 -113.14607675760534 z"/>
<path fill="#bababa" stroke="#bababa" d="M80.77406738663849 -97.91987950625857 L53.21670698054712 -78.39188239218709 L52.85340169658978 -79.64447130076552 L80.41076210268115 -99.172468414837 z"/>
<path fill="#bababa" stroke="#bababa" d="M37.557360406091384 -112.73611894148263 L80.7740673866385 -97.91987950625855 L80.41076210268116 -99.172468414837 L37.194055122134046 -113.98870785006103 z"/>
<path fill="#bababa" stroke="#bababa" d="M9.999999999999998 -93.20812182741115 L37.55736040609136 -112.73611894148263 L37.19405512213402 -113.98870785006106 L9.636694716042653 -94.46071073598958 z"/>
<path fill="#bababa" stroke="#bababa" d="M53.21670698054714 -78.3918823921871 L10.000000000000009 -93.20812182741115 L9.636694716042658 -94.4607107359896 L52.8534016965898 -79.64447130076552 z"/>
<path fill="#bababa" stroke="#bababa" d="M52.853401696589785 -79.6444713007655 L9.636694716042653 -94.46071073598958 L37.19405512213402 -113.98870785006106 L80.41076210268115 -99.17246841483698 z M78.70685449528156 -99.01366375785314 L37.484764759990455 -113.14607675760531 L11.340602323442237 -94.61951539297343 L52.56269205873334 -80.48710239322124 z"/>
<path fill="#bababa" stroke="#bababa" d="M37.55736040609137 -112.73611894148262 L9.999999999999998 -93.20812182741115 L53.21670698054712 -78.39188239218709 L80.77406738663849 -97.91987950625857 z M37.95888211312869 -111.85549749150067 L79.07015977923889 -97.76107484927472 L52.92599734269069 -79.23451348464282 L11.703907607399582 -93.36692648439498 L37.8480700439478 -111.89348784902691 z"/>
<path fill="#3c3c3c" stroke="#3c3c3c" d="M78.70685449528156 -99.01366375785314 L79.0701597792389 -97.7610748492747 L52.925997342690685 -79.23451348464282 L52.56269205873333 -80.48710239322124 z"/>
<path fill="#3c3c3c" stroke="#3c3c3c" d="M37.48476475999047 -113.14607675760533 L37.848070043947835 -111.89348784902691 L79.07015977923894 -97.7610748492747 L78.70685449528159 -99.01366375785314 z"/>
<path fill="#3c3c3c" stroke="#3c3c3c" d="M11.340602323442234 -94.61951539297341 L11.703907607399584 -93.366926484395 L37.8480700439478 -111.89348784902691 L37.484764759990455 -113.14607675760534 z"/>
<path fill="#3c3c3c" stroke="#3c3c3c" d="M52.562692058733354 -80.48710239322124 L52.92599734269071 -79.2345134846428 L11.703907607399602 -93.36692648439501 L11.340602323442258 -94.61951539297344 z"/>
<path fill="#3c3c3c" stroke="#3c3c3c" d="M78.70685449528156 -99.01366375785315 L52.56269205873334 -80.48710239322122 L11.340602323442235 -94.61951539297341 L37.484764759990455 -113.14607675760531 z"/>
<path fill="#3c3c3c" stroke="#3c3c3c" d="M79.0701597792389 -97.76107484927473 L37.8480700439478 -111.8934878490269 L11.703907607399582 -93.366926484395 L52.925997342690685 -79.2345134846428 z"/>
<path fill="#bababa" stroke="#bababa" d="M65.74872415085339 -133.1747917463966 L66.11202943481074 -131.92220283781816 L39.96786699826252 -113.39564147318626 L39.60456171430517 -114.64823038176468 z"/>
<path fill="#bababa" stroke="#bababa" d="M80.82665144959628 -100.5158173820125 L81.18995673355363 -99.26322847343407 L107.33411917010184 -117.78978983806597 L106.9708138861445 -119.0423787466444 z"/>
<path fill="#bababa" stroke="#bababa" d="M39.604561714305184 -114.64823038176469 L39.96786699826256 -113.39564147318623 L81.18995673355366 -99.26322847343407 L80.8266514495963 -100.51581738201251 z"/>
<path fill="#bababa" stroke="#bababa" d="M106.97081388614454 -119.0423787466444 L107.33411917010189 -117.78978983806599 L66.11202943481078 -131.92220283781816 L65.74872415085342 -133.1747917463966 z"/>
<path fill="#bababa" stroke="#bababa" d="M109.03802677750143 -117.94859449504982 L81.48066637141007 -98.42059738097835 L81.11736108745271 -99.67318628955677 L108.67472149354408 -119.20118340362825 z"/>
<path fill="#bababa" stroke="#bababa" d="M65.82131979695431 -132.76483393027388 L109.03802677750146 -117.94859449504983 L108.67472149354413 -119.20118340362824 L65.458014512997 -134.0174228388523 z"/>
<path fill="#bababa" stroke="#bababa" d="M38.26395939086294 -113.2368368162024 L65.8213197969543 -132.76483393027388 L65.45801451299695 -134.01742283885233 L37.90065410690559 -114.48942572478083 z"/>
<path fill="#bababa" stroke="#bababa" d="M81.48066637141008 -98.42059738097835 L38.26395939086296 -113.23683681620243 L37.90065410690562 -114.48942572478083 L81.11736108745275 -99.67318628955675 z"/>
<path fill="#bababa" stroke="#bababa" d="M81.11736108745271 -99.67318628955677 L37.90065410690559 -114.48942572478083 L65.45801451299695 -134.0174228388523 L108.67472149354407 -119.20118340362824 z M106.9708138861445 -119.04237874664439 L65.74872415085339 -133.17479174639658 L39.60456171430518 -114.64823038176468 L80.82665144959628 -100.5158173820125 z"/>
<path fill="#bababa" stroke="#bababa" d="M65.8213197969543 -132.76483393027385 L38.26395939086294 -113.2368368162024 L81.48066637141005 -98.42059738097834 L109.03802677750143 -117.94859449504983 z M66.22284150399163 -131.88421248029195 L107.33411917010184 -117.78978983806599 L81.18995673355361 -99.26322847343407 L39.96786699826252 -113.39564147318625 L66.11202943481074 -131.92220283781816 z"/>
<path fill="#3c3c3c" stroke="#3c3c3c" d="M106.9708138861445 -119.0423787466444 L107.33411917010184 -117.78978983806597 L81.18995673355363 -99.26322847343407 L80.82665144959628 -100.5158173820125 z"/>
<path fill="#3c3c3c" stroke="#3c3c3c" d="M65.74872415085342 -133.1747917463966 L66.11202943481076 -131.92220283781816 L107.33411917010189 -117.78978983806599 L106.97081388614453 -119.0423787466444 z"/>
<path fill="#3c3c3c" stroke="#3c3c3c" d="M39.60456171430517 -114.64823038176468 L39.96786699826252 -113.39564147318626 L66.11202943481074 -131.92220283781816 L65.74872415085339 -133.1747917463966 z"/>
<path fill="#3c3c3c" stroke="#3c3c3c" d="M80.8266514495963 -100.5158173820125 L81.18995673355364 -99.26322847343407 L39.96786699826253 -113.39564147318626 L39.604561714305206 -114.64823038176466 z"/>
<path fill="#3c3c3c" stroke="#3c3c3c" d="M106.9708138861445 -119.0423787466444 L80.82665144959627 -100.5158173820125 L39.60456171430518 -114.64823038176466 L65.74872415085339 -133.17479174639655 z"/>
<path fill="#3c3c3c" stroke="#3c3c3c" d="M107.33411917010184 -117.78978983806597 L66.11202943481074 -131.92220283781813 L39.96786699826252 -113.39564147318625 L81.18995673355361 -99.26322847343407 z"/>
<path fill="#bababa" stroke="#bababa" d="M94.01268354171633 -153.20350673518783 L94.37598882567369 -151.9509178266094 L68.23182638912546 -133.4243564619775 L67.86852110516811 -134.67694537055593 z"/>
<path fill="#bababa" stroke="#bababa" d="M109.09061084045922 -120.54453237080375 L109.45391612441658 -119.29194346222533 L135.59807856096478 -137.81850482685724 L135.23477327700743 -139.07109373543565 z"/>
<path fill="#bababa" stroke="#bababa" d="M67.86852110516816 -134.67694537055593 L68.23182638912549 -133.4243564619775 L109.4539161244166 -119.29194346222533 L109.09061084045925 -120.54453237080375 z"/>
<path fill="#bababa" stroke="#bababa" d="M135.2347732770075 -139.07109373543565 L135.5980785609648 -137.81850482685724 L94.37598882567372 -151.95091782660944 L94.01268354171638 -153.20350673518783 z"/>
<path fill="#bababa" stroke="#bababa" d="M137.30198616836435 -137.97730948384108 L109.74462576227302 -118.44931236976961 L109.38132047831566 -119.70190127834803 L136.938680884407 -139.2298983924195 z"/>
<path fill="#bababa" stroke="#bababa" d="M94.08527918781729 -152.79354891906513 L137.3019861683644 -137.97730948384108 L136.93868088440706 -139.2298983924195 L93.72197390385992 -154.04613782764358 z"/>
<path fill="#bababa" stroke="#bababa" d="M66.52791878172587 -133.26555180499366 L94.08527918781724 -152.79354891906513 L93.72197390385989 -154.04613782764358 L66.16461349776853 -134.51814071357208 z"/>
<path fill="#bababa" stroke="#bababa" d="M109.74462576227305 -118.44931236976959 L66.52791878172592 -133.26555180499366 L66.16461349776854 -134.51814071357208 L109.38132047831569 -119.70190127834803 z"/>
<path fill="#bababa" stroke="#bababa" d="M109.38132047831564 -119.70190127834803 L66.16461349776853 -134.51814071357208 L93.72197390385989 -154.04613782764355 L136.938680884407 -139.2298983924195 z M135.23477327700743 -139.07109373543565 L94.01268354171634 -153.20350673518783 L67.86852110516811 -134.67694537055593 L109.09061084045922 -120.54453237080375 z"/>
<path fill="#bababa" stroke="#bababa" d="M94.08527918781724 -152.79354891906516 L66.52791878172587 -133.26555180499366 L109.744625762273 -118.4493123697696 L137.30198616836435 -137.97730948384108 z M94.48680089485458 -151.9129274690832 L135.59807856096478 -137.81850482685724 L109.45391612441657 -119.29194346222532 L68.23182638912546 -133.42435646197748 L94.37598882567369 -151.9509178266094 z"/>
<path fill="#3c3c3c" stroke="#3c3c3c" d="M135.23477327700743 -139.07109373543565 L135.59807856096478 -137.81850482685724 L109.45391612441658 -119.29194346222533 L109.09061084045922 -120.54453237080375 z"/>
<path fill="#3c3c3c" stroke="#3c3c3c" d="M94.01268354171634 -153.20350673518786 L94.37598882567372 -151.95091782660944 L135.5980785609648 -137.81850482685724 L135.23477327700746 -139.07109373543568 z"/>
<path fill="#3c3c3c" stroke="#3c3c3c" d="M67.86852110516811 -134.67694537055593 L68.23182638912546 -133.4243564619775 L94.37598882567369 -151.9509178266094 L94.01268354171633 -153.20350673518783 z"/>
<path fill="#3c3c3c" stroke="#3c3c3c" d="M109.09061084045926 -120.54453237080374 L109.45391612441658 -119.29194346222533 L68.2318263891255 -133.4243564619775 L67.86852110516816 -134.67694537055593 z"/>
<path fill="#3c3c3c" stroke="#3c3c3c" d="M135.23477327700743 -139.07109373543565 L109.09061084045922 -120.54453237080375 L67.86852110516811 -134.6769453705559 L94.01268354171633 -153.20350673518786 z"/>
<path fill="#3c3c3c" stroke="#3c3c3c" d="M135.59807856096478 -137.81850482685724 L94.37598882567367 -151.9509178266094 L68.23182638912546 -133.42435646197748 L109.45391612441657 -119.29194346222532 z"/>
<path fill="#bababa" stroke="#bababa" d="M122.27664293257926 -173.2322217239791 L122.63994821653662 -171.9796328154007 L96.49578577998841 -153.45307145076876 L96.13248049603105 -154.70566035934718 z"/>
<path fill="#bababa" stroke="#bababa" d="M137.35457023132216 -140.573247359595 L137.7178755152795 -139.32065845101658 L163.86203795182772 -157.8472198156485 L163.49873266787037 -159.09980872422693 z"/>
<path fill="#bababa" stroke="#bababa" d="M96.1324804960311 -154.70566035934718 L96.49578577998844 -153.45307145076876 L137.71787551527953 -139.32065845101656 L137.35457023132219 -140.57324735959497 z"/>
<path fill="#bababa" stroke="#bababa" d="M163.49873266787043 -159.09980872422693 L163.86203795182777 -157.84721981564851 L122.63994821653667 -171.9796328154007 L122.27664293257932 -173.2322217239791 z"/>
<path fill="#bababa" stroke="#bababa" d="M165.56594555922732 -158.00602447263233 L138.00858515313595 -138.47802735856084 L137.6452798691786 -139.73061626713928 L165.20264027526997 -159.25861338121075 z"/>
<path fill="#bababa" stroke="#bababa" d="M122.34923857868021 -172.8222639078564 L165.56594555922734 -158.00602447263233 L165.20264027527 -159.25861338121078 L121.98593329472288 -174.0748528164348 z"/>
<path fill="#bababa" stroke="#bababa" d="M94.79187817258882 -153.2942667937849 L122.34923857868019 -172.82226390785638 L121.98593329472284 -174.07485281643483 L94.42857288863148 -154.54685570236336 z"/>
<path fill="#bababa" stroke="#bababa" d="M138.00858515313598 -138.47802735856087 L94.79187817258884 -153.2942667937849 L94.4285728886315 -154.54685570236336 L137.6452798691786 -139.73061626713928 z"/>
<path fill="#bababa" stroke="#bababa" d="M137.64527986917858 -139.73061626713928 L94.42857288863146 -154.54685570236336 L121.98593329472284 -174.07485281643483 L165.20264027526994 -159.25861338121075 z M163.49873266787037 -159.0998087242269 L122.27664293257928 -173.2322217239791 L96.13248049603106 -154.70566035934718 L137.35457023132216 -140.573247359595 z"/>
<path fill="#bababa" stroke="#bababa" d="M122.34923857868019 -172.8222639078564 L94.79187817258881 -153.2942667937849 L138.00858515313595 -138.47802735856087 L165.56594555922732 -158.00602447263233 z M122.75076028571752 -171.94164245787445 L163.86203795182772 -157.8472198156485 L137.7178755152795 -139.32065845101656 L96.4957857799884 -153.45307145076876 L122.63994821653662 -171.97963281540066 z"/>
<path fill="#3c3c3c" stroke="#3c3c3c" d="M163.49873266787037 -159.09980872422693 L163.86203795182772 -157.8472198156485 L137.7178755152795 -139.32065845101658 L137.35457023132216 -140.573247359595 z"/>
<path fill="#3c3c3c" stroke="#3c3c3c" d="M122.27664293257934 -173.23222172397905 L122.63994821653664 -171.9796328154007 L163.86203795182777 -157.84721981564851 L163.4987326678704 -159.09980872422693 z"/>
<path fill="#3c3c3c" stroke="#3c3c3c" d="M96.13248049603105 -154.70566035934718 L96.49578577998841 -153.45307145076876 L122.63994821653662 -171.9796328154007 L122.27664293257926 -173.2322217239791 z"/>
<path fill="#3c3c3c" stroke="#3c3c3c" d="M137.3545702313222 -140.573247359595 L137.71787551527956 -139.32065845101656 L96.49578577998842 -153.45307145076876 L96.13248049603108 -154.70566035934718 z"/>
<path fill="#3c3c3c" stroke="#3c3c3c" d="M163.49873266787037 -159.0998087242269 L137.35457023132216 -140.573247359595 L96.13248049603105 -154.70566035934718 L122.27664293257928 -173.2322217239791 z"/>
<path fill="#3c3c3c" stroke="#3c3c3c" d="M163.86203795182772 -157.84721981564846 L122.63994821653662 -171.97963281540066 L96.4957857799884 -153.45307145076876 L137.7178755152795 -139.32065845101656 z"/>
<path fill="#bababa" stroke="#bababa" d="M122.48476475999045 -95.4557214276561 L122.84807004394779 -94.20313251907767 L96.70390760739957 -75.67657115444575 L96.34060232344223 -76.92916006302418 z"/>
<path fill="#bababa" stroke="#bababa" d="M137.56269205873332 -62.796747063272 L137.92599734269066 -61.54415815469357 L164.07015977923888 -80.0707195193255 L163.70685449528156 -81.32330842790392 z"/>
<path fill="#bababa" stroke="#bababa" d="M96.34060232344224 -76.9291600630242 L96.7039076073996 -75.67657115444575 L137.9259973426907 -61.54415815469357 L137.56269205873335 -62.79674706327201 z"/>
<path fill="#bababa" stroke="#bababa" d="M163.70685449528156 -81.32330842790391 L164.07015977923894 -80.07071951932548 L122.84807004394783 -94.20313251907766 L122.48476475999047 -95.4557214276561 z"/>
<path fill="#bababa" stroke="#bababa" d="M165.77406738663848 -80.22952417630933 L138.21670698054712 -60.70152706223786 L137.85340169658977 -61.95411597081628 L165.41076210268113 -81.48211308488776 z"/>
<path fill="#bababa" stroke="#bababa" d="M122.55736040609138 -95.04576361153339 L165.7740673866385 -80.22952417630931 L165.41076210268116 -81.48211308488776 L122.19405512213402 -96.29835252011182 z"/>
<path fill="#bababa" stroke="#bababa" d="M94.99999999999999 -75.51776649746192 L122.55736040609135 -95.04576361153339 L122.194055122134 -96.29835252011182 L94.63669471604264 -76.77035540604034 z"/>
<path fill="#bababa" stroke="#bababa" d="M138.21670698054712 -60.70152706223786 L95 -75.5177664974619 L94.63669471604265 -76.77035540604035 L137.8534016965898 -61.95411597081628 z"/>
<path fill="#bababa" stroke="#bababa" d="M137.85340169658977 -61.95411597081628 L94.63669471604264 -76.77035540604034 L122.19405512213402 -96.29835252011182 L165.41076210268113 -81.48211308488774 z M163.70685449528156 -81.32330842790391 L122.48476475999044 -95.4557214276561 L96.34060232344223 -76.92916006302418 L137.56269205873332 -62.796747063272 z"/>
<path fill="#bababa" stroke="#bababa" d="M122.55736040609136 -95.04576361153339 L94.99999999999999 -75.5177664974619 L138.2167069805471 -60.701527062237844 L165.77406738663848 -80.22952417630934 z M122.95888211312868 -94.16514216155144 L164.0701597792389 -80.0707195193255 L137.92599734269066 -61.54415815469357 L96.70390760739957 -75.67657115444575 L122.8480700439478 -94.20313251907766 z"/>
<path fill="#3c3c3c" stroke="#3c3c3c" d="M163.70685449528156 -81.32330842790392 L164.07015977923888 -80.0707195193255 L137.92599734269066 -61.54415815469357 L137.56269205873332 -62.796747063272 z"/>
<path fill="#3c3c3c" stroke="#3c3c3c" d="M122.48476475999047 -95.4557214276561 L122.84807004394781 -94.20313251907766 L164.07015977923894 -80.07071951932546 L163.7068544952816 -81.32330842790391 z"/>
<path fill="#3c3c3c" stroke="#3c3c3c" d="M96.34060232344223 -76.92916006302418 L96.70390760739957 -75.67657115444575 L122.84807004394779 -94.20313251907767 L122.48476475999045 -95.4557214276561 z"/>
<path fill="#3c3c3c" stroke="#3c3c3c" d="M137.56269205873335 -62.796747063272 L137.9259973426907 -61.54415815469358 L96.70390760739959 -75.67657115444577 L96.34060232344224 -76.92916006302418 z"/>
<path fill="#3c3c3c" stroke="#3c3c3c" d="M163.70685449528153 -81.32330842790391 L137.56269205873332 -62.79674706327201 L96.34060232344223 -76.92916006302418 L122.48476475999045 -95.4557214276561 z"/>
<path fill="#3c3c3c" stroke="#3c3c3c" d="M164.0701597792389 -80.07071951932548 L122.8480700439478 -94.20313251907767 L96.70390760739957 -75.67657115444575 L137.92599734269066 -61.54415815469357 z"/>
<path fill="#bababa" stroke="#bababa" d="M150.74872415085338 -115.48443641644735 L151.11202943481072 -114.23184750786892 L124.96786699826252 -95.70528614323702 L124.60456171430516 -96.95787505181545 z"/>
<path fill="#bababa" stroke="#bababa" d="M165.82665144959628 -82.82546205206326 L166.18995673355363 -81.57287314348483 L192.33411917010184 -100.09943450811674 L191.97081388614447 -101.35202341669516 z"/>
<path fill="#bababa" stroke="#bababa" d="M124.60456171430519 -96.95787505181544 L124.96786699826254 -95.70528614323702 L166.18995673355363 -81.57287314348483 L165.82665144959628 -82.82546205206324 z"/>
<path fill="#bababa" stroke="#bababa" d="M191.97081388614453 -101.35202341669518 L192.33411917010187 -100.09943450811673 L151.11202943481078 -114.23184750786892 L150.7487241508534 -115.48443641644737 z"/>
<path fill="#bababa" stroke="#bababa" d="M194.03802677750141 -100.25823916510059 L166.48066637141005 -80.73024205102912 L166.1173610874527 -81.98283095960754 L193.67472149354407 -101.510828073679 z"/>
<path fill="#bababa" stroke="#bababa" d="M150.8213197969543 -115.07447860032465 L194.03802677750144 -100.25823916510059 L193.67472149354413 -101.510828073679 L150.45801451299698 -116.32706750890308 z"/>
<path fill="#bababa" stroke="#bababa" d="M123.26395939086294 -95.54648148625319 L150.8213197969543 -115.07447860032465 L150.45801451299693 -116.32706750890307 L122.90065410690559 -96.7990703948316 z"/>
<path fill="#bababa" stroke="#bababa" d="M166.48066637141008 -80.73024205102911 L123.26395939086295 -95.54648148625319 L122.90065410690562 -96.79907039483159 L166.1173610874527 -81.98283095960754 z"/>
<path fill="#bababa" stroke="#bababa" d="M166.1173610874527 -81.98283095960753 L122.90065410690559 -96.79907039483159 L150.45801451299695 -116.32706750890307 L193.67472149354407 -101.51082807367902 z M191.9708138861445 -101.35202341669518 L150.74872415085338 -115.48443641644735 L124.60456171430516 -96.95787505181544 L165.82665144959628 -82.82546205206326 z"/>
<path fill="#bababa" stroke="#bababa" d="M150.8213197969543 -115.07447860032464 L123.26395939086294 -95.54648148625317 L166.48066637141005 -80.73024205102911 L194.03802677750144 -100.25823916510058 z M151.22284150399162 -114.1938571503427 L192.33411917010184 -100.09943450811673 L166.1899567335536 -81.57287314348483 L124.96786699826251 -95.705286143237 L151.11202943481075 -114.23184750786893 z"/>
<path fill="#3c3c3c" stroke="#3c3c3c" d="M191.97081388614447 -101.35202341669516 L192.33411917010184 -100.09943450811674 L166.18995673355363 -81.57287314348483 L165.82665144959628 -82.82546205206326 z"/>
<path fill="#3c3c3c" stroke="#3c3c3c" d="M150.7487241508534 -115.48443641644737 L151.11202943481075 -114.23184750786893 L192.33411917010187 -100.09943450811673 L191.97081388614453 -101.35202341669518 z"/>
<path fill="#3c3c3c" stroke="#3c3c3c" d="M124.60456171430516 -96.95787505181545 L124.96786699826252 -95.70528614323702 L151.11202943481072 -114.23184750786892 L150.74872415085338 -115.48443641644735 z"/>
<path fill="#3c3c3c" stroke="#3c3c3c" d="M165.82665144959628 -82.82546205206326 L166.18995673355363 -81.57287314348484 L124.96786699826252 -95.70528614323703 L124.6045617143052 -96.95787505181544 z"/>
<path fill="#3c3c3c" stroke="#3c3c3c" d="M191.9708138861445 -101.35202341669518 L165.82665144959626 -82.82546205206324 L124.60456171430516 -96.95787505181544 L150.74872415085338 -115.48443641644737 z"/>
<path fill="#3c3c3c" stroke="#3c3c3c" d="M192.33411917010184 -100.09943450811673 L151.11202943481072 -114.2318475078689 L124.96786699826251 -95.70528614323702 L166.18995673355363 -81.57287314348483 z"/>
<path fill="#bababa" stroke="#bababa" d="M179.0126835417163 -135.5131514052386 L179.37598882567366 -134.26056249666019 L153.23182638912544 -115.73400113202828 L152.8685211051681 -116.98659004060669 z"/>
<path fill="#bababa" stroke="#bababa" d="M194.0906108404592 -102.85417704085451 L194.45391612441657 -101.60158813227608 L220.59807856096475 -120.12814949690801 L220.23477327700743 -121.38073840548643 z"/>
<path fill="#bababa" stroke="#bababa" d="M152.86852110516816 -116.98659004060669 L153.2318263891255 -115.73400113202827 L194.4539161244166 -101.60158813227609 L194.09061084045925 -102.85417704085452 z"/>
<path fill="#bababa" stroke="#bababa" d="M220.23477327700746 -121.38073840548644 L220.5980785609648 -120.12814949690801 L179.37598882567372 -134.26056249666019 L179.01268354171634 -135.51315140523863 z"/>
<path fill="#bababa" stroke="#bababa" d="M222.30198616836435 -120.28695415389184 L194.744625762273 -100.75895703982037 L194.38132047831564 -102.01154594839879 L221.938680884407 -121.53954306247026 z"/>
<path fill="#bababa" stroke="#bababa" d="M179.0852791878173 -135.1031935891159 L222.3019861683644 -120.28695415389183 L221.93868088440703 -121.53954306247027 L178.72197390385992 -136.35578249769435 z"/>
<path fill="#bababa" stroke="#bababa" d="M151.52791878172587 -115.57519647504442 L179.08527918781724 -135.1031935891159 L178.7219739038599 -136.35578249769432 L151.16461349776853 -116.82778538362284 z"/>
<path fill="#bababa" stroke="#bababa" d="M194.74462576227302 -100.75895703982037 L151.5279187817259 -115.57519647504442 L151.16461349776853 -116.82778538362285 L194.38132047831567 -102.01154594839879 z"/>
<path fill="#bababa" stroke="#bababa" d="M194.38132047831564 -102.01154594839879 L151.16461349776853 -116.82778538362284 L178.7219739038599 -136.35578249769432 L221.938680884407 -121.53954306247027 z M220.23477327700743 -121.38073840548643 L179.01268354171634 -135.5131514052386 L152.8685211051681 -116.98659004060669 L194.09061084045922 -102.85417704085451 z"/>
<path fill="#bababa" stroke="#bababa" d="M179.08527918781724 -135.1031935891159 L151.52791878172584 -115.57519647504442 L194.744625762273 -100.75895703982034 L222.30198616836435 -120.28695415389183 z M179.48680089485455 -134.22257213913397 L220.59807856096478 -120.12814949690801 L194.45391612441657 -101.60158813227609 L153.23182638912544 -115.73400113202825 L179.37598882567366 -134.26056249666019 z"/>
<path fill="#3c3c3c" stroke="#3c3c3c" d="M220.23477327700743 -121.38073840548643 L220.59807856096475 -120.12814949690801 L194.45391612441657 -101.60158813227608 L194.0906108404592 -102.85417704085451 z"/>
<path fill="#3c3c3c" stroke="#3c3c3c" d="M179.01268354171634 -135.51315140523863 L179.37598882567372 -134.26056249666019 L220.5980785609648 -120.12814949690801 L220.23477327700746 -121.38073840548644 z"/>
<path fill="#3c3c3c" stroke="#3c3c3c" d="M152.8685211051681 -116.98659004060669 L153.23182638912544 -115.73400113202828 L179.37598882567366 -134.26056249666019 L179.0126835417163 -135.5131514052386 z"/>
<path fill="#3c3c3c" stroke="#3c3c3c" d="M194.09061084045925 -102.8541770408545 L194.4539161244166 -101.6015881322761 L153.2318263891255 -115.73400113202827 L152.86852110516813 -116.98659004060669 z"/>
<path fill="#3c3c3c" stroke="#3c3c3c" d="M220.23477327700743 -121.38073840548641 L194.0906108404592 -102.85417704085451 L152.8685211051681 -116.9865900406067 L179.0126835417163 -135.5131514052386 z"/>
<path fill="#3c3c3c" stroke="#3c3c3c" d="M220.59807856096478 -120.12814949690798 L179.3759888256737 -134.26056249666019 L153.23182638912544 -115.73400113202825 L194.45391612441657 -101.60158813227608 z"/>
<path fill="#bababa" stroke="#bababa" d="M207.27664293257925 -155.54186639402988 L207.63994821653662 -154.28927748545144 L181.49578577998838 -135.76271612081953 L181.13248049603104 -137.01530502939795 z"/>
<path fill="#bababa" stroke="#bababa" d="M222.35457023132216 -122.88289202964577 L222.7178755152795 -121.63030312106734 L248.86203795182772 -140.15686448569926 L248.49873266787034 -141.40945339427768 z"/>
<path fill="#bababa" stroke="#bababa" d="M181.13248049603106 -137.01530502939795 L181.4957857799884 -135.76271612081953 L222.71787551527953 -121.63030312106736 L222.35457023132219 -122.88289202964577 z"/>
<path fill="#bababa" stroke="#bababa" d="M248.49873266787043 -141.40945339427768 L248.86203795182777 -140.15686448569926 L207.63994821653665 -154.28927748545144 L207.2766429325793 -155.54186639402988 z"/>
<path fill="#bababa" stroke="#bababa" d="M250.56594555922732 -140.3156691426831 L223.00858515313593 -120.78767202861164 L222.64527986917858 -122.04026093719006 L250.20264027526997 -141.56825805126152 z"/>
<path fill="#bababa" stroke="#bababa" d="M207.3492385786802 -155.13190857790718 L250.56594555922734 -140.3156691426831 L250.20264027527 -141.56825805126152 L206.98593329472286 -156.3844974864856 z"/>
<path fill="#bababa" stroke="#bababa" d="M179.7918781725888 -135.6039114638357 L207.34923857868017 -155.13190857790718 L206.98593329472283 -156.3844974864856 L179.42857288863146 -136.8565003724141 z"/>
<path fill="#bababa" stroke="#bababa" d="M223.00858515313598 -120.78767202861162 L179.79187817258884 -135.6039114638357 L179.4285728886315 -136.85650037241413 L222.6452798691786 -122.04026093719006 z"/>
<path fill="#bababa" stroke="#bababa" d="M222.64527986917858 -122.04026093719004 L179.42857288863144 -136.8565003724141 L206.9859332947228 -156.38449748648557 L250.20264027526994 -141.56825805126152 z M248.4987326678704 -141.40945339427768 L207.27664293257925 -155.54186639402985 L181.13248049603106 -137.01530502939795 L222.35457023132216 -122.88289202964576 z"/>
<path fill="#bababa" stroke="#bababa" d="M207.34923857868017 -155.13190857790715 L179.7918781725888 -135.60391146383566 L223.00858515313595 -120.78767202861162 L250.5659455592273 -140.3156691426831 z M207.7507602857175 -154.25128712792522 L248.8620379518277 -140.15686448569926 L222.7178755152795 -121.63030312106734 L181.49578577998838 -135.7627161208195 L207.6399482165366 -154.28927748545144 z"/>
<path fill="#3c3c3c" stroke="#3c3c3c" d="M248.49873266787034 -141.40945339427768 L248.86203795182772 -140.15686448569926 L222.7178755152795 -121.63030312106734 L222.35457023132216 -122.88289202964577 z"/>
<path fill="#3c3c3c" stroke="#3c3c3c" d="M207.2766429325793 -155.54186639402985 L207.63994821653662 -154.28927748545146 L248.86203795182777 -140.15686448569926 L248.4987326678704 -141.40945339427768 z"/>
<path fill="#3c3c3c" stroke="#3c3c3c" d="M181.13248049603104 -137.01530502939795 L181.49578577998838 -135.76271612081953 L207.63994821653662 -154.28927748545144 L207.27664293257925 -155.54186639402988 z"/>
<path fill="#3c3c3c" stroke="#3c3c3c" d="M222.35457023132219 -122.88289202964576 L222.71787551527956 -121.63030312106734 L181.4957857799884 -135.7627161208195 L181.1324804960311 -137.01530502939795 z"/>
<path fill="#3c3c3c" stroke="#3c3c3c" d="M248.49873266787037 -141.40945339427768 L222.35457023132216 -122.88289202964576 L181.13248049603104 -137.01530502939795 L207.27664293257925 -155.54186639402985 z"/>
<path fill="#3c3c3c" stroke="#3c3c3c" d="M248.86203795182774 -140.15686448569926 L207.63994821653662 -154.28927748545144 L181.49578577998838 -135.76271612081953 L222.7178755152795 -121.63030312106733 z"/>
</svg>