<?xml version="1.0" encoding="UTF-8"?>
<!-- Generated by jsxcad -->
<!DOCTYPE svg PUBLIC "-//W3C//DTD SVG 1.1 Tiny//EN" "http://www.w3.org/Graphics/SVG/1.1/DTD/svg11-tiny.dtd">
<svg baseProfile="tiny" height="431.6345177664977mm" width="360.0000000000002mm" viewBox="-180.0000000000001 -215.61759729272433 360.0000000000002 431.6345177664977" version="1.1" stroke="black" stroke-width=".1" fill="none" xmlns="http://www.w3.org/2000/svg">
<path fill="#fffcf7" stroke="#fffcf7" d="M180 208.55160744500847 L180 215.6175972927242 L-180 215.6175972927242 L-180 208.55160744500847 z"/>
<path fill="#fffcf7" stroke="#fffcf7" d="M-180 208.55160744500844 L-180 215.61759729272418 L-180 -208.95093062605753 L-180 -216.01692047377324 z"/>
<path fill="#fffcf7" stroke="#fffcf7" d="M180 21.7414551607445 L180 28.807445008460235 L180 215.61759729272418 L180 208.55160744500844 z"/>
<path fill="#fffcf7" stroke="#fffcf7" d="M144 21.7414551607445 L144 28.807445008460235 L180 28.807445008460235 L180 21.7414551607445 z"/>
<path fill="#fffcf7" stroke="#fffcf7" d="M144 -216.01692047377324 L144 -208.95093062605753 L144 28.807445008460235 L144 21.7414551607445 z"/>
<path fill="#fffcf7" stroke="#fffcf7" d="M-180 -216.01692047377327 L-180 -208.95093062605756 L144 -208.95093062605756 L144 -216.01692047377327 z"/>
<path fill="#fffcf7" stroke="#fffcf7" d="M180 208.55160744500844 L-180 208.55160744500844 L-180 -216.01692047377324 L144 -216.01692047377324 L144 21.741455160744497 L180 21.741455160744497 z"/>
<path fill="#fffcf7" stroke="#fffcf7" d="M-180 215.61759729272416 L180 215.61759729272416 L180 28.807445008460235 L144 28.807445008460235 L144 -208.95093062605747 L-180 -208.95093062605747 z"/>
</svg>